<?xml version="1.0" encoding="UTF-8" standalone="no"?>
<svg
   xmlns:dc="http://purl.org/dc/elements/1.1/"
   xmlns:cc="http://creativecommons.org/ns#"
   xmlns:rdf="http://www.w3.org/1999/02/22-rdf-syntax-ns#"
   xmlns:svg="http://www.w3.org/2000/svg"
   xmlns="http://www.w3.org/2000/svg"
   xmlns:xlink="http://www.w3.org/1999/xlink"
   xmlns:sodipodi="http://sodipodi.sourceforge.net/DTD/sodipodi-0.dtd"
   xmlns:inkscape="http://www.inkscape.org/namespaces/inkscape"
   version="1.1"
   preserveAspectRatio="none"
   x="0px"
   y="0px"
   width="2208.6687"
   height="786.26385"
   viewBox="0 0 2208.6687 786.26385"
   id="svg3336"
   inkscape:version="0.91 r13725"
   sodipodi:docname="vector_backgrounds.svg">
  <metadata
     id="metadata3668">
    <rdf:RDF>
      <cc:Work
         rdf:about="">
        <dc:format>image/svg+xml</dc:format>
        <dc:type
           rdf:resource="http://purl.org/dc/dcmitype/StillImage" />
        <dc:title />
      </cc:Work>
    </rdf:RDF>
  </metadata>
  <sodipodi:namedview
     pagecolor="#ffffff"
     bordercolor="#666666"
     borderopacity="1"
     objecttolerance="10"
     gridtolerance="10"
     guidetolerance="10"
     inkscape:pageopacity="0"
     inkscape:pageshadow="2"
     inkscape:window-width="1920"
     inkscape:window-height="1058"
     id="namedview3666"
     showgrid="false"
     fit-margin-top="0"
     fit-margin-left="0"
     fit-margin-right="0"
     fit-margin-bottom="0"
     inkscape:zoom="0.36195028"
     inkscape:cx="17.986614"
     inkscape:cy="461.54607"
     inkscape:window-x="1912"
     inkscape:window-y="-8"
     inkscape:window-maximized="1"
     inkscape:current-layer="svg3336" />
  <defs
     id="defs3338">
    <g
       id="Layer0_0_MEMBER_0_FILL">
      <path
         d="m 2240,560 -560,0 0,560 560,0 0,-560 z"
         id="path3341"
         inkscape:connector-curvature="0"
         style="fill:#d0f4f7;stroke:none" />
    </g>
    <g
       id="Layer0_0_MEMBER_1_FILL">
      <path
         d="m 2043.4,790.15 q -7.5,-7.05 -17.85,-6.65 -10.35,0.35 -17.35,8.05 -2,1.95 -3.3,4.25 -12.85,-6.95 -28.5,-6.3 -16.6,0.6 -29.35,9.45 -14.65,-10.25 -33.55,-9.5 -21.1,0.85 -36.05,14.95 l -0.05,-0.05 q -16.95,-15.55 -40.1,-14.7 -7.45,0.3 -14.2,2.3 -4.15,-13.7 -15.5,-24.2 -3.95,-3.65 -8.25,-6.4 -14.05,-9.05 -31.75,-8.3 -23.15,0.9 -38.85,17.75 -0.1,0.1 -0.2,0.25 -0.85,-0.9 -1.7,-1.8 -1.6,-1.6 -3.25,-3 -14.95,-12.9 -35.3,-12.9 -4.3,0 -8.4,0.6 l 0,321.05 559.95,0 0.05,-321.3 q -17.85,3.1 -30.65,16.95 -5.6,6.05 -9.1,12.95 -11.2,-4.9 -24.5,-4.4 -15.05,0.6 -26.9,7.95 -1.7,-1.9 -3.6,-3.65 -20.4,-18.85 -48.15,-17.8 -27.7,1.1 -46.55,21.45 -2.45,2.7 -4.65,5.45 -1.1,-1.25 -2.4,-2.45 z"
         id="path3344"
         inkscape:connector-curvature="0"
         style="fill:#dcfafc;stroke:none" />
    </g>
    <g
       id="Layer0_0_MEMBER_2_FILL">
      <path
         d="m 1894.35,831.5 q -10.35,-0.4 -17.85,6.65 -1.3,1.2 -2.4,2.45 -2.2,-2.75 -4.65,-5.45 -18.85,-20.35 -46.55,-21.45 -27.75,-1.05 -48.15,17.8 -1.9,1.75 -3.6,3.65 -11.85,-7.35 -26.9,-7.95 -13.3,-0.5 -24.5,4.4 -3.5,-6.9 -9.1,-12.95 -12.8,-13.85 -30.65,-16.95 l 0.05,175.25 559.95,0 0,-175 q -4.1,-0.6 -8.4,-0.6 -20.35,0 -35.3,12.9 -1.65,1.4 -3.25,3 -0.85,0.9 -1.7,1.8 -0.1,-0.15 -0.2,-0.25 -15.7,-16.85 -38.85,-17.75 -17.7,-0.75 -31.75,8.3 -4.3,2.75 -8.25,6.4 -11.35,10.5 -15.5,24.2 -6.75,-2 -14.2,-2.3 -23.15,-0.85 -40.1,14.7 l -0.05,0.05 q -14.95,-14.1 -36.05,-14.95 -18.9,-0.75 -33.55,9.5 -12.75,-8.85 -29.35,-9.45 -15.65,-0.65 -28.5,6.3 -1.3,-2.3 -3.3,-4.25 -7,-7.7 -17.35,-8.05 z"
         id="path3347"
         inkscape:connector-curvature="0"
         style="fill:#e7fdff;stroke:none" />
    </g>
    <g
       id="Layer0_0_MEMBER_3_FILL">
      <path
         d="m 2184.35,907 0,11.9 12.2,0 0,-11.9 -12.2,0 m -23,-22.45 -17.85,0 0,108.4 17.85,0 0,-108.4 m -392.95,-12 -17.85,0 0,108.4 17.85,0 0,-108.4 m 89.95,-38 -17.85,0 0,108.4 17.85,0 0,-108.4 z"
         id="path3350"
         inkscape:connector-curvature="0"
         style="fill:#efebdc;stroke:none" />
      <path
         d="m 2176.65,905.9 q 3.45,0.8 7.7,1.1 l 12.2,0 q 4.3,-0.3 7.7,-1.1 4.95,-1.1 5.6,-2.65 0.1,-0.25 0.1,-0.5 l 0,-0.05 q -0.05,-1.6 -0.5,-3.1 -1.25,-3.7 -5.2,-6.6 -5.7,-4.1 -13.8,-4.1 -8.05,0 -13.8,4.1 -3.95,2.9 -5.15,6.6 -0.5,1.5 -0.55,3.1 l 0,0.05 q 0,0.25 0.1,0.5 0.65,1.55 5.6,2.65 m -44.4,-41.8 q -5.75,4.25 -7.5,9.65 -0.75,2.2 -0.8,4.5 l 0,0.1 q 0,0.35 0.15,0.7 0.95,2.3 8.15,3.9 5.05,1.15 11.25,1.6 l 17.85,0 q 6.3,-0.45 11.25,-1.6 7.25,-1.6 8.2,-3.9 0.15,-0.35 0.15,-0.7 l 0,-0.1 q -0.1,-2.3 -0.75,-4.5 -1.8,-5.4 -7.6,-9.65 -8.3,-6 -20.15,-6 -11.8,0 -20.2,6 M 1788,866.25 q -0.1,-2.3 -0.75,-4.5 -1.8,-5.4 -7.6,-9.65 -8.3,-6 -20.15,-6 -11.8,0 -20.2,6 -5.75,4.25 -7.5,9.65 -0.75,2.2 -0.8,4.5 l 0,0.1 q 0,0.35 0.15,0.7 0.95,2.3 8.15,3.9 5.05,1.15 11.25,1.6 l 17.85,0 q 6.3,-0.45 11.25,-1.6 7.25,-1.6 8.2,-3.9 0.15,-0.35 0.15,-0.7 l 0,-0.1 m 89.2,-42.5 q -1.8,-5.4 -7.6,-9.65 -8.3,-6 -20.15,-6 -11.8,0 -20.2,6 -5.75,4.25 -7.5,9.65 -0.75,2.2 -0.8,4.5 l 0,0.1 q 0,0.35 0.15,0.7 0.95,2.3 8.15,3.9 5.05,1.15 11.25,1.6 l 17.85,0 q 6.3,-0.45 11.25,-1.6 7.25,-1.6 8.2,-3.9 0.15,-0.35 0.15,-0.7 l 0,-0.1 q -0.1,-2.3 -0.75,-4.5 z"
         id="path3352"
         inkscape:connector-curvature="0"
         style="fill:#a06d3d;stroke:none" />
    </g>
    <g
       id="Layer0_0_MEMBER_4_FILL">
      <path
         d="m 1862.55,914.3 q -26.85,-5.8 -54.8,-8.7 -40.25,-3.95 -79.35,1.75 -24.15,3.6 -48.4,6.95 l 0,205.7 560,0 0,-204.95 q -24.8,3.45 -49.3,8 -38.1,7 -76.7,12.6 -38.2,5.55 -77.85,6.2 -38.2,0.45 -75.55,-5.75 -38.1,-6.25 -74.3,-16.05 -11.75,-3.15 -23.75,-5.75 z"
         id="path3355"
         inkscape:connector-curvature="0"
         style="fill:#c58f5c;stroke:none" />
      <path
         d="m 1807.75,898.65 q 27.95,3 54.8,9 12,2.65 23.75,5.9 36.2,10.15 74.3,16.6 37.35,6.4 75.55,5.95 39.65,-0.7 77.85,-6.45 38.6,-5.75 76.7,-13 24.5,-4.7 49.3,-8.25 l 0,-4.75 q -24.8,3.65 -49.3,8.45 -38.1,7.4 -76.7,13.3 -38.2,5.85 -77.85,6.55 -38.2,0.5 -75.55,-6.05 -38.1,-6.6 -74.3,-17 -11.75,-3.3 -23.75,-6 -26.85,-6.15 -54.8,-9.2 -40.25,-4.2 -79.35,1.85 -24.15,3.75 -48.4,7.35 l 0,4.75 q 24.25,-3.5 48.4,-7.2 39.1,-5.9 79.35,-1.8 z"
         id="path3357"
         inkscape:connector-curvature="0"
         style="fill:#e5b180;stroke:none" />
      <path
         d="m 1862.55,907.65 q -26.85,-6 -54.8,-9 -40.25,-4.1 -79.35,1.8 -24.15,3.7 -48.4,7.2 l 0,6.65 q 24.25,-3.35 48.4,-6.95 39.1,-5.7 79.35,-1.75 27.95,2.9 54.8,8.7 12,2.6 23.75,5.75 36.2,9.8 74.3,16.05 37.35,6.2 75.55,5.75 39.65,-0.65 77.85,-6.2 38.6,-5.6 76.7,-12.6 24.5,-4.55 49.3,-8 l 0,-6.65 q -24.8,3.55 -49.3,8.25 -38.1,7.25 -76.7,13 -38.2,5.75 -77.85,6.45 -38.2,0.45 -75.55,-5.95 -38.1,-6.45 -74.3,-16.6 -11.75,-3.25 -23.75,-5.9 z"
         id="path3359"
         inkscape:connector-curvature="0"
         style="fill:#bd8958;stroke:none" />
    </g>
    <g
       id="Layer0_1_MEMBER_0_FILL">
      <path
         d="m 1680,1120 0,-560 -560,0 0,560 560,0 z"
         id="path3362"
         inkscape:connector-curvature="0"
         style="fill:#d0f4f7;stroke:none" />
    </g>
    <g
       id="Layer0_1_MEMBER_1_FILL">
      <path
         d="m 1483.4,790.15 q -7.5,-7.05 -17.85,-6.65 -10.35,0.35 -17.35,8.05 -2,1.95 -3.3,4.25 -12.85,-6.95 -28.5,-6.3 -16.6,0.6 -29.35,9.45 -14.65,-10.25 -33.55,-9.5 -21.1,0.85 -36.05,14.95 l -0.05,-0.05 q -16.95,-15.55 -40.1,-14.7 -7.45,0.3 -14.2,2.3 -4.15,-13.7 -15.5,-24.2 -3.95,-3.65 -8.25,-6.4 -14.05,-9.05 -31.75,-8.3 -23.15,0.9 -38.85,17.75 -0.1,0.1 -0.2,0.25 -0.85,-0.9 -1.7,-1.8 -1.6,-1.6 -3.25,-3 -14.95,-12.9 -35.3,-12.9 -4.3,0 -8.4,0.6 l 0,321.05 559.95,0 0.05,-321.3 q -17.85,3.1 -30.65,16.95 -5.6,6.05 -9.1,12.95 -11.2,-4.9 -24.5,-4.4 -15.05,0.6 -26.9,7.95 -1.7,-1.9 -3.6,-3.65 -20.4,-18.85 -48.15,-17.8 -27.7,1.1 -46.55,21.45 -2.45,2.7 -4.65,5.45 -1.1,-1.25 -2.4,-2.45 z"
         id="path3365"
         inkscape:connector-curvature="0"
         style="fill:#dcfafc;stroke:none" />
    </g>
    <g
       id="Layer0_1_MEMBER_2_FILL">
      <path
         d="m 1680,801.95 q -4.1,-0.6 -8.4,-0.6 -20.35,0 -35.3,12.9 -1.65,1.4 -3.25,3 -0.85,0.9 -1.7,1.8 -0.1,-0.15 -0.2,-0.25 -15.7,-16.85 -38.85,-17.75 -17.7,-0.75 -31.75,8.3 -4.3,2.75 -8.25,6.4 -11.35,10.5 -15.5,24.2 -6.75,-2 -14.2,-2.3 -23.15,-0.85 -40.1,14.7 l -0.05,0.05 q -14.95,-14.1 -36.05,-14.95 -18.9,-0.75 -33.55,9.5 -12.75,-8.85 -29.35,-9.45 -15.65,-0.65 -28.5,6.3 -1.3,-2.3 -3.3,-4.25 -7,-7.7 -17.35,-8.05 -10.35,-0.4 -17.85,6.65 -1.3,1.2 -2.4,2.45 -2.2,-2.75 -4.65,-5.45 -18.85,-20.35 -46.55,-21.45 -27.75,-1.05 -48.15,17.8 -1.9,1.75 -3.6,3.65 -11.85,-7.35 -26.9,-7.95 -13.3,-0.5 -24.5,4.4 -3.5,-6.9 -9.1,-12.95 -12.8,-13.85 -30.65,-16.95 l 0.05,175.25 559.95,0 0,-175 z"
         id="path3368"
         inkscape:connector-curvature="0"
         style="fill:#e7fdff;stroke:none" />
    </g>
    <g
       id="Layer0_1_MEMBER_3_FILL">
      <path
         d="m 1204.95,881.5 q -4.6,-4.55 -11.05,-4.55 l -0.05,0 q -6.4,0 -11,4.55 -3.75,3.7 -4.45,8.65 -0.1,0.9 -0.15,1.85 l 0,53.9 31.25,0 0,-53.5 q 0,-0.1 0,-0.2 l 0,-0.35 q -0.2,-5.4 -3.7,-9.4 l 0,-0.05 q -0.4,-0.45 -0.85,-0.9 m 160.5,27.35 q -0.2,-5.4 -3.7,-9.4 l 0,-0.05 q -0.4,-0.45 -0.85,-0.9 -4.6,-4.55 -11.05,-4.55 l -0.05,0 q -6.4,0 -11,4.55 -3.75,3.7 -4.45,8.65 -0.1,0.9 -0.15,1.85 l 0,53.9 31.25,0 0,-53.5 q 0,-0.1 0,-0.2 l 0,-0.35 M 1327.7,859.8 q -0.15,-5.4 -3.7,-9.4 l 0,-0.05 q -0.4,-0.45 -0.85,-0.9 -4.6,-4.5 -11.05,-4.5 -6.45,0 -11.05,4.5 -3.75,3.7 -4.4,8.65 -0.15,0.95 -0.2,1.85 l 0,80 31.25,0 0,-79.6 q 0,-0.1 0,-0.2 l 0,-0.35 m 240.75,-24 q -0.25,-8.3 -5.65,-14.45 l -0.05,-0.05 q -0.6,-0.7 -1.3,-1.4 -7.05,-6.95 -16.95,-6.95 l -0.05,0 q -9.9,0 -16.95,6.95 -5.75,5.7 -6.8,13.3 -0.2,1.4 -0.25,2.85 l 0,122.9 48,0 0,-122.3 q 0,-0.15 0,-0.3 l 0,-0.55 m 58,40.85 q 0,-0.15 0,-0.3 l 0,-0.55 q -0.25,-8.3 -5.65,-14.45 l -0.05,-0.05 q -0.6,-0.7 -1.3,-1.4 -7.05,-6.95 -16.95,-6.95 l -0.05,0 q -9.9,0 -16.95,6.95 -5.75,5.7 -6.8,13.3 -0.2,1.4 -0.25,2.85 l 0,82.85 48,0 0,-82.25 z"
         id="path3371"
         inkscape:connector-curvature="0"
         style="fill:#80be1f;stroke:none" />
    </g>
    <g
       id="Layer0_1_MEMBER_4_FILL">
      <path
         d="m 1680,915.05 q -24.8,3.45 -49.3,8 -38.1,7 -76.7,12.6 -38.2,5.55 -77.85,6.2 -38.2,0.45 -75.55,-5.75 -38.1,-6.25 -74.3,-16.05 -11.75,-3.15 -23.75,-5.75 -26.85,-5.8 -54.8,-8.7 -40.25,-3.95 -79.35,1.75 -24.15,3.6 -48.4,6.95 l 0,205.7 560,0 0,-204.95 z"
         id="path3374"
         inkscape:connector-curvature="0"
         style="fill:#a0db44;stroke:none" />
      <path
         d="m 1680,915.05 0,-6.65 q -24.8,3.55 -49.3,8.25 -38.1,7.25 -76.7,13 -38.2,5.75 -77.85,6.45 -38.2,0.45 -75.55,-5.95 -38.1,-6.45 -74.3,-16.6 -11.75,-3.25 -23.75,-5.9 -26.85,-6 -54.8,-9 -40.25,-4.1 -79.35,1.8 -24.15,3.7 -48.4,7.2 l 0,6.65 q 24.25,-3.35 48.4,-6.95 39.1,-5.7 79.35,-1.75 27.95,2.9 54.8,8.7 12,2.6 23.75,5.75 36.2,9.8 74.3,16.05 37.35,6.2 75.55,5.75 39.65,-0.65 77.85,-6.2 38.6,-5.6 76.7,-12.6 24.5,-4.55 49.3,-8 z"
         id="path3376"
         inkscape:connector-curvature="0"
         style="fill:#95cb41;stroke:none" />
      <path
         d="m 1680,908.4 0,-4.75 q -24.8,3.65 -49.3,8.45 -38.1,7.4 -76.7,13.3 -38.2,5.85 -77.85,6.55 -38.2,0.5 -75.55,-6.05 -38.1,-6.6 -74.3,-17 -11.75,-3.3 -23.75,-6 -26.85,-6.15 -54.8,-9.2 -40.25,-4.2 -79.35,1.85 -24.15,3.75 -48.4,7.35 l 0,4.75 q 24.25,-3.5 48.4,-7.2 39.1,-5.9 79.35,-1.8 27.95,3 54.8,9 12,2.65 23.75,5.9 36.2,10.15 74.3,16.6 37.35,6.4 75.55,5.95 39.65,-0.7 77.85,-6.45 38.6,-5.75 76.7,-13 24.5,-4.7 49.3,-8.25 z"
         id="path3378"
         inkscape:connector-curvature="0"
         style="fill:#caf38a;stroke:none" />
    </g>
    <g
       id="Layer0_2_MEMBER_0_FILL">
      <path
         d="m 1120,560 -560,0 0,560 560,0 0,-560 z"
         id="path3381"
         inkscape:connector-curvature="0"
         style="fill:#d0f4f7;stroke:none" />
    </g>
    <g
       id="Layer0_2_MEMBER_1_FILL">
      <path
         d="m 687.6,767.75 q -3.95,-3.65 -8.25,-6.4 -14.05,-9.05 -31.75,-8.3 -23.15,0.9 -38.85,17.75 -0.1,0.1 -0.2,0.25 -0.85,-0.9 -1.7,-1.8 -1.6,-1.6 -3.25,-3 -14.95,-12.9 -35.3,-12.9 -4.3,0 -8.4,0.6 l 0,321.05 559.95,0 0.05,-321.3 q -17.85,3.1 -30.65,16.95 -5.6,6.05 -9.1,12.95 -11.2,-4.9 -24.5,-4.4 -15.05,0.6 -26.9,7.95 -1.7,-1.9 -3.6,-3.65 -20.4,-18.85 -48.15,-17.8 -27.7,1.1 -46.55,21.45 -2.45,2.7 -4.65,5.45 -1.1,-1.25 -2.4,-2.45 -7.5,-7.05 -17.85,-6.65 -10.35,0.35 -17.35,8.05 -2,1.95 -3.3,4.25 -12.85,-6.95 -28.5,-6.3 -16.6,0.6 -29.35,9.45 -14.65,-10.25 -33.55,-9.5 -21.1,0.85 -36.05,14.95 l -0.05,-0.05 q -16.95,-15.55 -40.1,-14.7 -7.45,0.3 -14.2,2.3 -4.15,-13.7 -15.5,-24.2 z"
         id="path3384"
         inkscape:connector-curvature="0"
         style="fill:#dcfafc;stroke:none" />
    </g>
    <g
       id="Layer0_2_MEMBER_2_FILL">
      <path
         d="m 599.75,831.6 q -3.5,-6.9 -9.1,-12.95 Q 577.85,804.8 560,801.7 l 0.05,175.25 559.95,0 0,-175 q -4.1,-0.6 -8.4,-0.6 -20.35,0 -35.3,12.9 -1.65,1.4 -3.25,3 -0.85,0.9 -1.7,1.8 -0.1,-0.15 -0.2,-0.25 -15.7,-16.85 -38.85,-17.75 -17.7,-0.75 -31.75,8.3 -4.3,2.75 -8.25,6.4 -11.35,10.5 -15.5,24.2 -6.75,-2 -14.2,-2.3 -23.15,-0.85 -40.1,14.7 l -0.05,0.05 q -14.95,-14.1 -36.05,-14.95 -18.9,-0.75 -33.55,9.5 -12.75,-8.85 -29.35,-9.45 -15.65,-0.65 -28.5,6.3 -1.3,-2.3 -3.3,-4.25 -7,-7.7 -17.35,-8.05 -10.35,-0.4 -17.85,6.65 -1.3,1.2 -2.4,2.45 -2.2,-2.75 -4.65,-5.45 -18.85,-20.35 -46.55,-21.45 -27.75,-1.05 -48.15,17.8 -1.9,1.75 -3.6,3.65 -11.85,-7.35 -26.9,-7.95 -13.3,-0.5 -24.5,4.4 z"
         id="path3387"
         inkscape:connector-curvature="0"
         style="fill:#e7fdff;stroke:none" />
    </g>
    <g
       id="Layer0_2_MEMBER_3_FILL">
      <path
         d="m 608.4,907.35 q -24.15,3.6 -48.4,6.95 l 0,205.7 560,0 0,-204.95 q -24.8,3.45 -49.3,8 -38.1,7 -76.7,12.6 -38.2,5.55 -77.85,6.2 -38.2,0.45 -75.55,-5.75 -38.1,-6.25 -74.3,-16.05 -11.75,-3.15 -23.75,-5.75 -26.85,-5.8 -54.8,-8.7 -40.25,-3.95 -79.35,1.75 z"
         id="path3390"
         inkscape:connector-curvature="0"
         style="fill:#c4edf0;stroke:none" />
    </g>
    <g
       id="Layer0_2_MEMBER_4_FILL">
      <path
         d="m 707.95,837.95 q -0.1,-3.65 -2.7,-6.2 -2.6,-2.6 -6.4,-2.6 -3.7,0 -6.4,2.6 -2.6,2.55 -2.65,6.2 l 0,29.9 -0.6,0 q -0.55,0 -1.05,-0.4 l 0,-0.1 q -0.55,-0.45 -0.55,-0.85 l 0,-13.25 q 0,-2.2 -1.55,-3.85 -1.55,-1.5 -3.7,-1.5 -2.2,0 -3.85,1.5 -1.5,1.65 -1.5,3.85 l 0,15.15 q 0,4.9 3.3,8.5 0.2,0.2 0.6,0.5 3.45,3.25 8.3,3.25 l 0.6,0 0,28.35 18.15,0 0,-38.95 0.25,0 q 5,0 8.4,-3.35 0.3,-0.2 0.6,-0.5 3.35,-3.6 3.35,-8.4 l 0,-15.25 q 0,-2.2 -1.55,-3.75 -1.6,-1.6 -3.8,-1.6 -2.2,0 -3.75,1.6 -1.6,1.55 -1.6,3.75 l 0,13.25 q 0,0.4 -0.5,0.85 l -0.1,0.1 q -0.35,0.4 -1.05,0.4 l -0.25,0 0,-19.2 M 935.7,900.5 q -1.4,-1.35 -3.35,-1.35 -2,0 -3.35,1.35 -1.35,1.35 -1.4,3.25 l 0,10.05 -0.15,0 q -0.35,0 -0.55,-0.2 l -0.05,-0.05 q -0.25,-0.25 -0.25,-0.45 l 0,-6.95 q 0,-1.15 -0.85,-1.95 -0.8,-0.85 -1.95,-0.85 -1.15,0 -2,0.85 -0.8,0.8 -0.8,1.95 l 0,8 q 0,2.5 1.75,4.4 0.15,0.15 0.3,0.25 1.8,1.75 4.4,1.75 l 0.15,0 0,32.45 9.5,0 0,-26.9 0.3,0 q 2.55,0 4.35,-1.7 0.2,-0.15 0.3,-0.25 1.75,-1.9 1.75,-4.45 l 0,-7.95 q 0,-1.15 -0.8,-2 -0.85,-0.8 -2,-0.8 -1.15,0 -1.95,0.8 -0.8,0.85 -0.8,2 l 0,6.95 q 0,0.2 -0.3,0.45 l 0,0.05 q -0.25,0.2 -0.55,0.2 l -0.3,0 0,-15.65 q -0.05,-1.9 -1.4,-3.25 m 125.15,-10.25 0,-14.3 q 0,-2.05 -1.45,-3.5 -1.5,-1.5 -3.55,-1.5 -2.05,0 -3.5,1.5 -1.5,1.45 -1.5,3.5 l 0,12.45 q 0,0.4 -0.4,0.85 l -0.1,0.05 q -0.4,0.4 -1,0.4 l -0.3,0 0,-18 q -0.1,-3.4 -2.45,-5.8 -2.5,-2.45 -6,-2.45 -3.5,0 -6,2.45 -2.45,2.4 -2.55,5.8 l 0,28 -0.5,0 q -0.6,0 -1,-0.4 l -0.05,-0.05 q -0.45,-0.45 -0.45,-0.85 l 0,-12.45 q 0,-2.05 -1.45,-3.5 l -0.05,0 q -1.45,-1.5 -3.5,-1.5 -2.05,0 -3.55,1.5 -1.45,1.45 -1.45,3.5 l 0,14.3 q 0,4.5 3.15,7.9 0.2,0.25 0.5,0.45 3.25,3.1 7.85,3.1 l 0.5,0 0,32.75 17,0 0,-42.75 0.3,0 q 4.6,0 7.9,-3.1 0.25,-0.2 0.45,-0.45 3.15,-3.4 3.15,-7.9 z"
         id="path3393"
         inkscape:connector-curvature="0"
         style="fill:#80be1f;stroke:none" />
    </g>
    <g
       id="Layer0_2_MEMBER_5_FILL">
      <path
         d="m 608.4,907.35 q -24.15,3.6 -48.4,6.95 l 0,205.7 560,0 0,-204.95 q -24.8,3.45 -49.3,8 -38.1,7 -76.7,12.6 -38.2,5.55 -77.85,6.2 -38.2,0.45 -75.55,-5.75 -38.1,-6.25 -74.3,-16.05 -11.75,-3.15 -23.75,-5.75 -26.85,-5.8 -54.8,-8.7 -40.25,-3.95 -79.35,1.75 z"
         id="path3396"
         inkscape:connector-curvature="0"
         style="fill:#e7dfc2;stroke:none" />
      <path
         d="m 560,907.65 0,6.65 q 24.25,-3.35 48.4,-6.95 39.1,-5.7 79.35,-1.75 27.95,2.9 54.8,8.7 12,2.6 23.75,5.75 36.2,9.8 74.3,16.05 37.35,6.2 75.55,5.75 39.65,-0.65 77.85,-6.2 38.6,-5.6 76.7,-12.6 24.5,-4.55 49.3,-8 l 0,-6.65 q -24.8,3.55 -49.3,8.25 -38.1,7.25 -76.7,13 -38.2,5.75 -77.85,6.45 -38.2,0.45 -75.55,-5.95 -38.1,-6.45 -74.3,-16.6 -11.75,-3.25 -23.75,-5.9 -26.85,-6 -54.8,-9 -40.25,-4.1 -79.35,1.8 -24.15,3.7 -48.4,7.2 z"
         id="path3398"
         inkscape:connector-curvature="0"
         style="fill:#dbd3b5;stroke:none" />
      <path
         d="m 560,902.9 0,4.75 q 24.25,-3.5 48.4,-7.2 39.1,-5.9 79.35,-1.8 27.95,3 54.8,9 12,2.65 23.75,5.9 36.2,10.15 74.3,16.6 37.35,6.4 75.55,5.95 39.65,-0.7 77.85,-6.45 38.6,-5.75 76.7,-13 24.5,-4.7 49.3,-8.25 l 0,-4.75 q -24.8,3.65 -49.3,8.45 -38.1,7.4 -76.7,13.3 -38.2,5.85 -77.85,6.55 -38.2,0.5 -75.55,-6.05 -38.1,-6.6 -74.3,-17 -11.75,-3.3 -23.75,-6 -26.85,-6.15 -54.8,-9.2 -40.25,-4.2 -79.35,1.85 -24.15,3.75 -48.4,7.35 z"
         id="path3400"
         inkscape:connector-curvature="0"
         style="fill:#f0ead4;stroke:none" />
    </g>
    <g
       id="Layer0_3_MEMBER_0_FILL">
      <path
         d="m 560,560 -560,0 0,560 560,0 0,-560 z"
         id="path3403"
         inkscape:connector-curvature="0"
         style="fill:#d0f4f7;stroke:none" />
    </g>
    <g
       id="Layer0_3_MEMBER_1_FILL">
      <path
         d="m 48.75,770.8 q -0.1,0.1 -0.2,0.25 -0.85,-0.9 -1.7,-1.8 -1.6,-1.6 -3.25,-3 -14.95,-12.9 -35.3,-12.9 -4.3,0 -8.4,0.6 l 0,321.05 559.95,0 0.05,-321.3 q -17.85,3.1 -30.65,16.95 -5.6,6.05 -9.1,12.95 -11.2,-4.9 -24.5,-4.4 -15.05,0.6 -26.9,7.95 -1.7,-1.9 -3.6,-3.65 -20.4,-18.85 -48.15,-17.8 -27.7,1.1 -46.55,21.45 -2.45,2.7 -4.65,5.45 -1.1,-1.25 -2.4,-2.45 -7.5,-7.05 -17.85,-6.65 -10.35,0.35 -17.35,8.05 -2,1.95 -3.3,4.25 -12.85,-6.95 -28.5,-6.3 -16.6,0.6 -29.35,9.45 -14.65,-10.25 -33.55,-9.5 -21.1,0.85 -36.05,14.95 l -0.05,-0.05 q -16.95,-15.55 -40.1,-14.7 -7.45,0.3 -14.2,2.3 -4.15,-13.7 -15.5,-24.2 -3.95,-3.65 -8.25,-6.4 -14.05,-9.05 -31.75,-8.3 -23.15,0.9 -38.85,17.75 z"
         id="path3406"
         inkscape:connector-curvature="0"
         style="fill:#dcfafc;stroke:none" />
    </g>
    <g
       id="Layer0_3_MEMBER_2_FILL">
      <path
         d="m 560,801.95 q -4.1,-0.6 -8.4,-0.6 -20.35,0 -35.3,12.9 -1.65,1.4 -3.25,3 -0.85,0.9 -1.7,1.8 -0.1,-0.15 -0.2,-0.25 -15.7,-16.85 -38.85,-17.75 -17.7,-0.75 -31.75,8.3 -4.3,2.75 -8.25,6.4 -11.35,10.5 -15.5,24.2 -6.75,-2 -14.2,-2.3 -23.15,-0.85 -40.1,14.7 l -0.05,0.05 q -14.95,-14.1 -36.05,-14.95 -18.9,-0.75 -33.55,9.5 -12.75,-8.85 -29.35,-9.45 -15.65,-0.65 -28.5,6.3 -1.3,-2.3 -3.3,-4.25 -7,-7.7 -17.35,-8.05 -10.35,-0.4 -17.85,6.65 -1.3,1.2 -2.4,2.45 -2.2,-2.75 -4.65,-5.45 -18.85,-20.35 -46.55,-21.45 -27.75,-1.05 -48.15,17.8 -1.9,1.75 -3.6,3.65 -11.85,-7.35 -26.9,-7.95 -13.3,-0.5 -24.5,4.4 -3.5,-6.9 -9.1,-12.95 Q 17.85,804.8 0,801.7 l 0.05,175.25 559.95,0 0,-175 z"
         id="path3409"
         inkscape:connector-curvature="0"
         style="fill:#e7fdff;stroke:none" />
    </g>
    <g
       id="Layer0_3_MEMBER_3_FILL">
      <path
         d="m 560,915.05 q -24.8,3.45 -49.3,8 -38.1,7 -76.7,12.6 -38.2,5.55 -77.85,6.2 -38.2,0.45 -75.55,-5.75 -38.1,-6.25 -74.3,-16.05 -11.75,-3.15 -23.75,-5.75 -26.85,-5.8 -54.8,-8.7 -40.25,-3.95 -79.35,1.75 -24.15,3.6 -48.4,6.95 l 0,205.7 560,0 0,-204.95 z"
         id="path3412"
         inkscape:connector-curvature="0"
         style="fill:#c4edf0;stroke:none" />
    </g>
    <g
       id="Layer0_3_MEMBER_4_FILL">
      <path
         d="m 560,915.05 q -24.8,3.45 -49.3,8 -38.1,7 -76.7,12.6 -38.2,5.55 -77.85,6.2 -38.2,0.45 -75.55,-5.75 -38.1,-6.25 -74.3,-16.05 -11.75,-3.15 -23.75,-5.75 -26.85,-5.8 -54.8,-8.7 -40.25,-3.95 -79.35,1.75 -24.15,3.6 -48.4,6.95 l 0,205.7 560,0 0,-204.95 z"
         id="path3415"
         inkscape:connector-curvature="0"
         style="fill:#a0db44;stroke:none" />
      <path
         d="m 560,915.05 0,-6.65 q -24.8,3.55 -49.3,8.25 -38.1,7.25 -76.7,13 -38.2,5.75 -77.85,6.45 -38.2,0.45 -75.55,-5.95 -38.1,-6.45 -74.3,-16.6 -11.75,-3.25 -23.75,-5.9 -26.85,-6 -54.8,-9 -40.25,-4.1 -79.35,1.8 -24.15,3.7 -48.4,7.2 l 0,6.65 q 24.25,-3.35 48.4,-6.95 39.1,-5.7 79.35,-1.75 27.95,2.9 54.8,8.7 12,2.6 23.75,5.75 36.2,9.8 74.3,16.05 37.35,6.2 75.55,5.75 39.65,-0.65 77.85,-6.2 38.6,-5.6 76.7,-12.6 24.5,-4.55 49.3,-8 z"
         id="path3417"
         inkscape:connector-curvature="0"
         style="fill:#95cb41;stroke:none" />
      <path
         d="m 560,908.4 0,-4.75 q -24.8,3.65 -49.3,8.45 -38.1,7.4 -76.7,13.3 -38.2,5.85 -77.85,6.55 -38.2,0.5 -75.55,-6.05 -38.1,-6.6 -74.3,-17 -11.75,-3.3 -23.75,-6 -26.85,-6.15 -54.8,-9.2 Q 87.5,889.5 48.4,895.55 24.25,899.3 0,902.9 l 0,4.75 q 24.25,-3.5 48.4,-7.2 39.1,-5.9 79.35,-1.8 27.95,3 54.8,9 12,2.65 23.75,5.9 36.2,10.15 74.3,16.6 37.35,6.4 75.55,5.95 39.65,-0.7 77.85,-6.45 38.6,-5.75 76.7,-13 24.5,-4.7 49.3,-8.25 z"
         id="path3419"
         inkscape:connector-curvature="0"
         style="fill:#caf38a;stroke:none" />
    </g>
    <g
       id="Layer0_4_MEMBER_0_FILL">
      <path
         d="M 0,0 0,560 560,560 560,0 0,0 Z"
         id="path3422"
         inkscape:connector-curvature="0"
         style="fill:#d0f4f7;stroke:none" />
    </g>
    <g
       id="Layer0_4_MEMBER_1_FILL">
      <path
         d="m 468.75,227.15 q -1.7,-1.9 -3.6,-3.65 -20.4,-18.85 -48.15,-17.8 -27.7,1.1 -46.55,21.45 -2.45,2.7 -4.65,5.45 -1.1,-1.25 -2.4,-2.45 -7.5,-7.05 -17.85,-6.65 -10.35,0.35 -17.35,8.05 -2,1.95 -3.3,4.25 -12.85,-6.95 -28.5,-6.3 -16.6,0.6 -29.35,9.45 -14.65,-10.25 -33.55,-9.5 -21.1,0.85 -36.05,14.95 l -0.05,-0.05 q -16.95,-15.55 -40.1,-14.7 -7.45,0.3 -14.2,2.3 -4.15,-13.7 -15.5,-24.2 -3.95,-3.65 -8.25,-6.4 -14.05,-9.05 -31.75,-8.3 -23.15,0.9 -38.85,17.75 -0.1,0.1 -0.2,0.25 -0.85,-0.9 -1.7,-1.8 -1.6,-1.6 -3.25,-3 -14.95,-12.9 -35.3,-12.9 -4.3,0 -8.4,0.6 l 0,321.05 559.95,0 0.05,-321.3 q -17.85,3.1 -30.65,16.95 -5.6,6.05 -9.1,12.95 -11.2,-4.9 -24.5,-4.4 -15.05,0.6 -26.9,7.95 z"
         id="path3425"
         inkscape:connector-curvature="0"
         style="fill:#dcfafc;stroke:none" />
    </g>
    <g
       id="Layer0_4_MEMBER_2_FILL">
      <path
         d="m 432.3,255.75 q -11.35,10.5 -15.5,24.2 -6.75,-2 -14.2,-2.3 -23.15,-0.85 -40.1,14.7 l -0.05,0.05 q -14.95,-14.1 -36.05,-14.95 -18.9,-0.75 -33.55,9.5 -12.75,-8.85 -29.35,-9.45 -15.65,-0.65 -28.5,6.3 -1.3,-2.3 -3.3,-4.25 -7,-7.7 -17.35,-8.05 -10.35,-0.4 -17.85,6.65 -1.3,1.2 -2.4,2.45 -2.2,-2.75 -4.65,-5.45 -18.85,-20.35 -46.55,-21.45 -27.75,-1.05 -48.15,17.8 -1.9,1.75 -3.6,3.65 -11.85,-7.35 -26.9,-7.95 -13.3,-0.5 -24.5,4.4 -3.5,-6.9 -9.1,-12.95 Q 17.85,244.8 0,241.7 l 0.05,175.25 559.95,0 0,-175 q -4.1,-0.6 -8.4,-0.6 -20.35,0 -35.3,12.9 -1.65,1.4 -3.25,3 -0.85,0.9 -1.7,1.8 -0.1,-0.15 -0.2,-0.25 -15.7,-16.85 -38.85,-17.75 -17.7,-0.75 -31.75,8.3 -4.3,2.75 -8.25,6.4 z"
         id="path3428"
         inkscape:connector-curvature="0"
         style="fill:#e7fdff;stroke:none" />
    </g>
    <g
       id="Layer0_4_MEMBER_3_FILL">
      <path
         d="m 434,375.65 q -38.2,5.55 -77.85,6.2 -38.2,0.45 -75.55,-5.75 -38.1,-6.25 -74.3,-16.05 -11.75,-3.15 -23.75,-5.75 -26.85,-5.8 -54.8,-8.7 -40.25,-3.95 -79.35,1.75 -24.15,3.6 -48.4,6.95 l 0,205.7 560,0 0,-204.95 q -24.8,3.45 -49.3,8 -38.1,7 -76.7,12.6 z"
         id="path3431"
         inkscape:connector-curvature="0"
         style="fill:#c4edf0;stroke:none" />
    </g>
    <g
       id="Layer0_5_MEMBER_0_FILL">
      <path
         d="m 1120,560 0,-560 -560,0 0,560 560,0 z"
         id="path3434"
         inkscape:connector-curvature="0"
         style="fill:#d0f4f7;stroke:none" />
    </g>
    <g
       id="Layer0_5_MEMBER_1_FILL">
      <path
         d="m 1089.25,210.65 q -5.6,6.05 -9.1,12.95 -11.2,-4.9 -24.5,-4.4 -15.05,0.6 -26.9,7.95 -1.7,-1.9 -3.6,-3.65 -20.4,-18.85 -48.15,-17.8 -27.7,1.1 -46.55,21.45 -2.45,2.7 -4.65,5.45 -1.1,-1.25 -2.4,-2.45 -7.5,-7.05 -17.85,-6.65 -10.35,0.35 -17.35,8.05 -2,1.95 -3.3,4.25 -12.85,-6.95 -28.5,-6.3 -16.6,0.6 -29.35,9.45 -14.65,-10.25 -33.55,-9.5 -21.1,0.85 -36.05,14.95 l -0.05,-0.05 q -16.95,-15.55 -40.1,-14.7 -7.45,0.3 -14.2,2.3 -4.15,-13.7 -15.5,-24.2 -3.95,-3.65 -8.25,-6.4 -14.05,-9.05 -31.75,-8.3 -23.15,0.9 -38.85,17.75 -0.1,0.1 -0.2,0.25 -0.85,-0.9 -1.7,-1.8 -1.6,-1.6 -3.25,-3 -14.95,-12.9 -35.3,-12.9 -4.3,0 -8.4,0.6 l 0,321.05 559.95,0 0.05,-321.3 q -17.85,3.1 -30.65,16.95 z"
         id="path3437"
         inkscape:connector-curvature="0"
         style="fill:#dcfafc;stroke:none" />
    </g>
    <g
       id="Layer0_5_MEMBER_2_FILL">
      <path
         d="m 1120,241.95 q -4.1,-0.6 -8.4,-0.6 -20.35,0 -35.3,12.9 -1.65,1.4 -3.25,3 -0.85,0.9 -1.7,1.8 -0.1,-0.15 -0.2,-0.25 -15.7,-16.85 -38.85,-17.75 -17.7,-0.75 -31.75,8.3 -4.3,2.75 -8.25,6.4 -11.35,10.5 -15.5,24.2 -6.75,-2 -14.2,-2.3 -23.15,-0.85 -40.1,14.7 l -0.05,0.05 q -14.95,-14.1 -36.05,-14.95 -18.9,-0.75 -33.55,9.5 -12.75,-8.85 -29.35,-9.45 -15.65,-0.65 -28.5,6.3 -1.3,-2.3 -3.3,-4.25 -7,-7.7 -17.35,-8.05 -10.35,-0.4 -17.85,6.65 -1.3,1.2 -2.4,2.45 -2.2,-2.75 -4.65,-5.45 -18.85,-20.35 -46.55,-21.45 -27.75,-1.05 -48.15,17.8 -1.9,1.75 -3.6,3.65 -11.85,-7.35 -26.9,-7.95 -13.3,-0.5 -24.5,4.4 -3.5,-6.9 -9.1,-12.95 Q 577.85,244.8 560,241.7 l 0.05,175.25 559.95,0 0,-175 z"
         id="path3440"
         inkscape:connector-curvature="0"
         style="fill:#e7fdff;stroke:none" />
    </g>
    <g
       id="Layer0_5_MEMBER_3_FILL">
      <path
         d="m 1120,355.05 q -24.8,3.45 -49.3,8 -38.1,7 -76.7,12.6 -38.2,5.55 -77.85,6.2 -38.2,0.45 -75.55,-5.75 -38.1,-6.25 -74.3,-16.05 -11.75,-3.15 -23.75,-5.75 -26.85,-5.8 -54.8,-8.7 -40.25,-3.95 -79.35,1.75 -24.15,3.6 -48.4,6.95 l 0,205.7 560,0 0,-204.95 z"
         id="path3443"
         inkscape:connector-curvature="0"
         style="fill:#c4edf0;stroke:none" />
    </g>
    <g
       id="Layer0_5_MEMBER_4_FILL">
      <path
         d="m 937.1,343.75 q -0.05,-1.9 -1.4,-3.25 -1.4,-1.35 -3.35,-1.35 -2,0 -3.35,1.35 -1.35,1.35 -1.4,3.25 l 0,10.05 -0.15,0 q -0.35,0 -0.55,-0.2 l -0.05,-0.05 q -0.25,-0.25 -0.25,-0.45 l 0,-6.95 q 0,-1.15 -0.85,-1.95 -0.8,-0.85 -1.95,-0.85 -1.15,0 -2,0.85 -0.8,0.8 -0.8,1.95 l 0,8 q 0,2.5 1.75,4.4 0.15,0.15 0.3,0.25 1.8,1.75 4.4,1.75 l 0.15,0 0,32.45 9.5,0 0,-26.9 0.3,0 q 2.55,0 4.35,-1.7 0.2,-0.15 0.3,-0.25 1.75,-1.9 1.75,-4.45 l 0,-7.95 q 0,-1.15 -0.8,-2 -0.85,-0.8 -2,-0.8 -1.15,0 -1.95,0.8 -0.8,0.85 -0.8,2 l 0,6.95 q 0,0.2 -0.3,0.45 l 0,0.05 q -0.25,0.2 -0.55,0.2 l -0.3,0 0,-15.65 M 682.35,287.9 q -2.2,0 -3.85,1.5 -1.5,1.65 -1.5,3.85 l 0,15.15 q 0,4.9 3.3,8.5 0.2,0.2 0.6,0.5 3.45,3.25 8.3,3.25 l 0.6,0 0,28.35 18.15,0 0,-38.95 0.25,0 q 5,0 8.4,-3.35 0.3,-0.2 0.6,-0.5 3.35,-3.6 3.35,-8.4 l 0,-15.25 q 0,-2.2 -1.55,-3.75 -1.6,-1.6 -3.8,-1.6 -2.2,0 -3.75,1.6 -1.6,1.55 -1.6,3.75 l 0,13.25 q 0,0.4 -0.5,0.85 l -0.1,0.1 q -0.35,0.4 -1.05,0.4 l -0.25,0 0,-19.2 q -0.1,-3.65 -2.7,-6.2 -2.6,-2.6 -6.4,-2.6 -3.7,0 -6.4,2.6 -2.6,2.55 -2.65,6.2 l 0,29.9 -0.6,0 q -0.55,0 -1.05,-0.4 l 0,-0.1 q -0.55,-0.45 -0.55,-0.85 l 0,-13.25 q 0,-2.2 -1.55,-3.85 -1.55,-1.5 -3.7,-1.5 m 358.25,15.55 q -3.5,0 -6,2.45 -2.45,2.4 -2.55,5.8 l 0,28 -0.5,0 q -0.6,0 -1,-0.4 l -0.05,-0.05 q -0.45,-0.45 -0.45,-0.85 l 0,-12.45 q 0,-2.05 -1.45,-3.5 l -0.05,0 q -1.45,-1.5 -3.5,-1.5 -2.05,0 -3.55,1.5 -1.45,1.45 -1.45,3.5 l 0,14.3 q 0,4.5 3.15,7.9 0.2,0.25 0.5,0.45 3.25,3.1 7.85,3.1 l 0.5,0 0,32.75 17,0 0,-42.75 0.3,0 q 4.6,0 7.9,-3.1 0.25,-0.2 0.45,-0.45 3.15,-3.4 3.15,-7.9 l 0,-14.3 q 0,-2.05 -1.45,-3.5 -1.5,-1.5 -3.55,-1.5 -2.05,0 -3.5,1.5 -1.5,1.45 -1.5,3.5 l 0,12.45 q 0,0.4 -0.4,0.85 l -0.1,0.05 q -0.4,0.4 -1,0.4 l -0.3,0 0,-18 q -0.1,-3.4 -2.45,-5.8 -2.5,-2.45 -6,-2.45 z"
         id="path3446"
         inkscape:connector-curvature="0"
         style="fill:#c4edf0;stroke:none" />
    </g>
    <g
       id="Layer0_6_MEMBER_0_FILL">
      <path
         d="m 1680,560 0,-560 -560,0 0,560 560,0 z"
         id="path3449"
         inkscape:connector-curvature="0"
         style="fill:#d0f4f7;stroke:none" />
    </g>
    <g
       id="Layer0_6_MEMBER_1_FILL">
      <path
         d="m 1649.25,210.65 q -5.6,6.05 -9.1,12.95 -11.2,-4.9 -24.5,-4.4 -15.05,0.6 -26.9,7.95 -1.7,-1.9 -3.6,-3.65 -20.4,-18.85 -48.15,-17.8 -27.7,1.1 -46.55,21.45 -2.45,2.7 -4.65,5.45 -1.1,-1.25 -2.4,-2.45 -7.5,-7.05 -17.85,-6.65 -10.35,0.35 -17.35,8.05 -2,1.95 -3.3,4.25 -12.85,-6.95 -28.5,-6.3 -16.6,0.6 -29.35,9.45 -14.65,-10.25 -33.55,-9.5 -21.1,0.85 -36.05,14.95 l -0.05,-0.05 q -16.95,-15.55 -40.1,-14.7 -7.45,0.3 -14.2,2.3 -4.15,-13.7 -15.5,-24.2 -3.95,-3.65 -8.25,-6.4 -14.05,-9.05 -31.75,-8.3 -23.15,0.9 -38.85,17.75 -0.1,0.1 -0.2,0.25 -0.85,-0.9 -1.7,-1.8 -1.6,-1.6 -3.25,-3 -14.95,-12.9 -35.3,-12.9 -4.3,0 -8.4,0.6 l 0,321.05 559.95,0 0.05,-321.3 q -17.85,3.1 -30.65,16.95 z"
         id="path3452"
         inkscape:connector-curvature="0"
         style="fill:#dcfafc;stroke:none" />
    </g>
    <g
       id="Layer0_6_MEMBER_2_FILL">
      <path
         d="m 1680,241.95 q -4.1,-0.6 -8.4,-0.6 -20.35,0 -35.3,12.9 -1.65,1.4 -3.25,3 -0.85,0.9 -1.7,1.8 -0.1,-0.15 -0.2,-0.25 -15.7,-16.85 -38.85,-17.75 -17.7,-0.75 -31.75,8.3 -4.3,2.75 -8.25,6.4 -11.35,10.5 -15.5,24.2 -6.75,-2 -14.2,-2.3 -23.15,-0.85 -40.1,14.7 l -0.05,0.05 q -14.95,-14.1 -36.05,-14.95 -18.9,-0.75 -33.55,9.5 -12.75,-8.85 -29.35,-9.45 -15.65,-0.65 -28.5,6.3 -1.3,-2.3 -3.3,-4.25 -7,-7.7 -17.35,-8.05 -10.35,-0.4 -17.85,6.65 -1.3,1.2 -2.4,2.45 -2.2,-2.75 -4.65,-5.45 -18.85,-20.35 -46.55,-21.45 -27.75,-1.05 -48.15,17.8 -1.9,1.75 -3.6,3.65 -11.85,-7.35 -26.9,-7.95 -13.3,-0.5 -24.5,4.4 -3.5,-6.9 -9.1,-12.95 -12.8,-13.85 -30.65,-16.95 l 0.05,175.25 559.95,0 0,-175 z"
         id="path3455"
         inkscape:connector-curvature="0"
         style="fill:#e7fdff;stroke:none" />
    </g>
    <g
       id="Layer0_6_MEMBER_3_FILL">
      <path
         d="m 1680,355.05 q -24.8,3.45 -49.3,8 -38.1,7 -76.7,12.6 -38.2,5.55 -77.85,6.2 -38.2,0.45 -75.55,-5.75 -38.1,-6.25 -74.3,-16.05 -11.75,-3.15 -23.75,-5.75 -26.85,-5.8 -54.8,-8.7 -40.25,-3.95 -79.35,1.75 -24.15,3.6 -48.4,6.95 l 0,205.7 560,0 0,-204.95 z"
         id="path3458"
         inkscape:connector-curvature="0"
         style="fill:#c4edf0;stroke:none" />
    </g>
    <g
       id="Layer0_6_MEMBER_4_FILL">
      <path
         d="m 1568.45,275.8 q -0.25,-8.3 -5.65,-14.45 l -0.05,-0.05 q -0.6,-0.7 -1.3,-1.4 -7.05,-6.95 -16.95,-6.95 l -0.05,0 q -9.9,0 -16.95,6.95 -5.75,5.7 -6.8,13.3 -0.2,1.4 -0.25,2.85 l 0,122.9 48,0 0,-122.3 q 0,-0.15 0,-0.3 l 0,-0.55 m 58,40.85 q 0,-0.15 0,-0.3 l 0,-0.55 q -0.25,-8.3 -5.65,-14.45 l -0.05,-0.05 q -0.6,-0.7 -1.3,-1.4 -7.05,-6.95 -16.95,-6.95 l -0.05,0 q -9.9,0 -16.95,6.95 -5.75,5.7 -6.8,13.3 -0.2,1.4 -0.25,2.85 l 0,82.85 48,0 0,-82.25 z"
         id="path3461"
         inkscape:connector-curvature="0"
         style="fill:#c4edf0;stroke:none" />
    </g>
    <g
       id="Layer0_6_MEMBER_5_FILL">
      <path
         d="m 1193.85,316.95 q -6.4,0 -11,4.55 -3.75,3.7 -4.45,8.65 -0.1,0.9 -0.15,1.85 l 0,53.9 31.25,0 0,-53.5 q 0,-0.1 0,-0.2 l 0,-0.35 q -0.2,-5.4 -3.7,-9.4 l 0,-0.05 q -0.4,-0.45 -0.85,-0.9 -4.6,-4.55 -11.05,-4.55 l -0.05,0 m 167.9,22.5 0,-0.05 q -0.4,-0.45 -0.85,-0.9 -4.6,-4.55 -11.05,-4.55 l -0.05,0 q -6.4,0 -11,4.55 -3.75,3.7 -4.45,8.65 -0.1,0.9 -0.15,1.85 l 0,53.9 31.25,0 0,-53.5 q 0,-0.1 0,-0.2 l 0,-0.35 q -0.2,-5.4 -3.7,-9.4 m -38.6,-50 q -4.6,-4.5 -11.05,-4.5 -6.45,0 -11.05,4.5 -3.75,3.7 -4.4,8.65 -0.15,0.95 -0.2,1.85 l 0,80 31.25,0 0,-79.6 q 0,-0.1 0,-0.2 l 0,-0.35 q -0.15,-5.4 -3.7,-9.4 l 0,-0.05 q -0.4,-0.45 -0.85,-0.9 z"
         id="path3464"
         inkscape:connector-curvature="0"
         style="fill:#c4edf0;stroke:none" />
    </g>
    <g
       id="Layer0_7_MEMBER_0_FILL">
      <path
         d="m 2240,560 0,-560 -560,0 0,560 560,0 z"
         id="path3467"
         inkscape:connector-curvature="0"
         style="fill:#d0f4f7;stroke:none" />
    </g>
    <g
       id="Layer0_7_MEMBER_1_FILL">
      <path
         d="m 2045.8,232.6 q -1.1,-1.25 -2.4,-2.45 -7.5,-7.05 -17.85,-6.65 -10.35,0.35 -17.35,8.05 -2,1.95 -3.3,4.25 -12.85,-6.95 -28.5,-6.3 -16.6,0.6 -29.35,9.45 -14.65,-10.25 -33.55,-9.5 -21.1,0.85 -36.05,14.95 l -0.05,-0.05 q -16.95,-15.55 -40.1,-14.7 -7.45,0.3 -14.2,2.3 -4.15,-13.7 -15.5,-24.2 -3.95,-3.65 -8.25,-6.4 -14.05,-9.05 -31.75,-8.3 -23.15,0.9 -38.85,17.75 -0.1,0.1 -0.2,0.25 -0.85,-0.9 -1.7,-1.8 -1.6,-1.6 -3.25,-3 -14.95,-12.9 -35.3,-12.9 -4.3,0 -8.4,0.6 l 0,321.05 559.95,0 0.05,-321.3 q -17.85,3.1 -30.65,16.95 -5.6,6.05 -9.1,12.95 -11.2,-4.9 -24.5,-4.4 -15.05,0.6 -26.9,7.95 -1.7,-1.9 -3.6,-3.65 -20.4,-18.85 -48.15,-17.8 -27.7,1.1 -46.55,21.45 -2.45,2.7 -4.65,5.45 z"
         id="path3470"
         inkscape:connector-curvature="0"
         style="fill:#dcfafc;stroke:none" />
    </g>
    <g
       id="Layer0_7_MEMBER_2_FILL">
      <path
         d="m 2042.5,292.35 -0.05,0.05 q -14.95,-14.1 -36.05,-14.95 -18.9,-0.75 -33.55,9.5 -12.75,-8.85 -29.35,-9.45 -15.65,-0.65 -28.5,6.3 -1.3,-2.3 -3.3,-4.25 -7,-7.7 -17.35,-8.05 -10.35,-0.4 -17.85,6.65 -1.3,1.2 -2.4,2.45 -2.2,-2.75 -4.65,-5.45 -18.85,-20.35 -46.55,-21.45 -27.75,-1.05 -48.15,17.8 -1.9,1.75 -3.6,3.65 -11.85,-7.35 -26.9,-7.95 -13.3,-0.5 -24.5,4.4 -3.5,-6.9 -9.1,-12.95 -12.8,-13.85 -30.65,-16.95 l 0.05,175.25 559.95,0 0,-175 q -4.1,-0.6 -8.4,-0.6 -20.35,0 -35.3,12.9 -1.65,1.4 -3.25,3 -0.85,0.9 -1.7,1.8 -0.1,-0.15 -0.2,-0.25 -15.7,-16.85 -38.85,-17.75 -17.7,-0.75 -31.75,8.3 -4.3,2.75 -8.25,6.4 -11.35,10.5 -15.5,24.2 -6.75,-2 -14.2,-2.3 -23.15,-0.85 -40.1,14.7 z"
         id="path3473"
         inkscape:connector-curvature="0"
         style="fill:#e7fdff;stroke:none" />
    </g>
    <g
       id="Layer0_7_MEMBER_3_FILL">
      <path
         d="m 2036.15,381.85 q -38.2,0.45 -75.55,-5.75 -38.1,-6.25 -74.3,-16.05 -11.75,-3.15 -23.75,-5.75 -26.85,-5.8 -54.8,-8.7 -40.25,-3.95 -79.35,1.75 -24.15,3.6 -48.4,6.95 l 0,205.7 560,0 0,-204.95 q -24.8,3.45 -49.3,8 -38.1,7 -76.7,12.6 -38.2,5.55 -77.85,6.2 z"
         id="path3476"
         inkscape:connector-curvature="0"
         style="fill:#c4edf0;stroke:none" />
    </g>
    <g
       id="Layer0_7_MEMBER_4_FILL">
      <path
         d="m 2171.5,348.6 q -0.5,1.5 -0.55,3.1 l 0,0.05 q 0,0.25 0.1,0.5 0.65,1.55 5.6,2.65 3.45,0.8 7.7,1.1 l 0,11.9 12.2,0 0,-11.9 q 4.3,-0.3 7.7,-1.1 4.95,-1.1 5.6,-2.65 0.1,-0.25 0.1,-0.5 l 0,-0.05 q -0.05,-1.6 -0.5,-3.1 -1.25,-3.7 -5.2,-6.6 -5.7,-4.1 -13.8,-4.1 -8.05,0 -13.8,4.1 -3.95,2.9 -5.15,6.6 z"
         id="path3479"
         inkscape:connector-curvature="0"
         style="fill:#c4edf0;stroke:none" />
    </g>
    <g
       id="Layer0_7_MEMBER_5_FILL">
      <path
         d="m 2172.6,304.1 q -8.3,-6 -20.15,-6 -11.8,0 -20.2,6 -5.75,4.25 -7.5,9.65 -0.75,2.2 -0.8,4.5 l 0,0.1 q 0,0.35 0.15,0.7 0.95,2.3 8.15,3.9 5.05,1.15 11.25,1.6 l 0,108.4 17.85,0 0,-108.4 q 6.3,-0.45 11.25,-1.6 7.25,-1.6 8.2,-3.9 0.15,-0.35 0.15,-0.7 l 0,-0.1 q -0.1,-2.3 -0.75,-4.5 -1.8,-5.4 -7.6,-9.65 z"
         id="path3482"
         inkscape:connector-curvature="0"
         style="fill:#c4edf0;stroke:none" />
    </g>
    <g
       id="Layer0_7_MEMBER_6_FILL">
      <path
         d="m 1877.2,263.75 q -1.8,-5.4 -7.6,-9.65 -8.3,-6 -20.15,-6 -11.8,0 -20.2,6 -5.75,4.25 -7.5,9.65 -0.75,2.2 -0.8,4.5 l 0,0.1 q 0,0.35 0.15,0.7 0.95,2.3 8.15,3.9 5.05,1.15 11.25,1.6 l 0,108.4 17.85,0 0,-108.4 q 6.3,-0.45 11.25,-1.6 7.25,-1.6 8.2,-3.9 0.15,-0.35 0.15,-0.7 l 0,-0.1 q -0.1,-2.3 -0.75,-4.5 z"
         id="path3485"
         inkscape:connector-curvature="0"
         style="fill:#c4edf0;stroke:none" />
    </g>
    <g
       id="Layer0_7_MEMBER_7_FILL">
      <path
         d="m 1779.65,292.1 q -8.3,-6 -20.15,-6 -11.8,0 -20.2,6 -5.75,4.25 -7.5,9.65 -0.75,2.2 -0.8,4.5 l 0,0.1 q 0,0.35 0.15,0.7 0.95,2.3 8.15,3.9 5.05,1.15 11.25,1.6 l 0,108.4 17.85,0 0,-108.4 q 6.3,-0.45 11.25,-1.6 7.25,-1.6 8.2,-3.9 0.15,-0.35 0.15,-0.7 l 0,-0.1 q -0.1,-2.3 -0.75,-4.5 -1.8,-5.4 -7.6,-9.65 z"
         id="path3488"
         inkscape:connector-curvature="0"
         style="fill:#c4edf0;stroke:none" />
    </g>
  </defs>
  <g
     transform="translate(22.202483,-184.70417)"
     id="g3578">
    <use
       xlink:href="#Layer0_4_MEMBER_1_FILL"
       id="use3580"
       x="0"
       y="0"
       width="100%"
       height="100%" />
  </g>
  <g
     transform="translate(2.8628104,115.75146)"
     id="g3582">
    <use
       xlink:href="#Layer0_4_MEMBER_2_FILL"
       id="use3584"
       x="0"
       y="0"
       width="100%"
       height="100%" />
  </g>
  <g
     transform="translate(22.202483,226.26387)"
     id="g3586">
    <use
       xlink:href="#Layer0_4_MEMBER_3_FILL"
       id="use3588"
       x="0"
       y="0"
       width="100%"
       height="100%" />
  </g>
  <g
     id="g3606"
     transform="translate(-1.2814052,-3.740092)">
    <use
       xlink:href="#Layer0_5_MEMBER_4_FILL"
       id="use3608"
       x="0"
       y="0"
       width="100%"
       height="100%" />
  </g>
  <g
     id="g3626"
     transform="translate(-1.2814052,-3.740092)">
    <use
       xlink:href="#Layer0_6_MEMBER_4_FILL"
       id="use3628"
       x="0"
       y="0"
       width="100%"
       height="100%" />
  </g>
  <g
     id="g3630"
     transform="translate(-1.2814052,-3.740092)">
    <use
       xlink:href="#Layer0_6_MEMBER_5_FILL"
       id="use3632"
       x="0"
       y="0"
       width="100%"
       height="100%" />
  </g>
  <g
     id="g3650"
     transform="translate(-1.2814052,-3.740092)">
    <use
       xlink:href="#Layer0_7_MEMBER_4_FILL"
       id="use3652"
       x="0"
       y="0"
       width="100%"
       height="100%" />
  </g>
  <g
     id="g3654"
     transform="translate(-1.2814052,-3.740092)">
    <use
       xlink:href="#Layer0_7_MEMBER_5_FILL"
       id="use3656"
       x="0"
       y="0"
       width="100%"
       height="100%" />
  </g>
  <g
     id="g3658"
     transform="translate(-1.2814052,-3.740092)">
    <use
       xlink:href="#Layer0_7_MEMBER_6_FILL"
       id="use3660"
       x="0"
       y="0"
       width="100%"
       height="100%" />
  </g>
  <g
     id="g3662"
     transform="translate(-1.2814052,-3.740092)">
    <use
       xlink:href="#Layer0_7_MEMBER_7_FILL"
       id="use3664"
       x="0"
       y="0"
       width="100%"
       height="100%" />
  </g>
</svg>
