<?xml version="1.0" encoding="UTF-8" standalone="no"?>
<svg
   xmlns:dc="http://purl.org/dc/elements/1.1/"
   xmlns:cc="http://creativecommons.org/ns#"
   xmlns:rdf="http://www.w3.org/1999/02/22-rdf-syntax-ns#"
   xmlns:svg="http://www.w3.org/2000/svg"
   xmlns="http://www.w3.org/2000/svg"
   xmlns:sodipodi="http://sodipodi.sourceforge.net/DTD/sodipodi-0.dtd"
   xmlns:inkscape="http://www.inkscape.org/namespaces/inkscape"
   id="svg2"
   version="1.1"
   inkscape:version="0.91 r13725"
   sodipodi:docname="enemies_.svg"
   width="493.03107"
   height="198.79999">
  <metadata
     id="metadata160">
    <rdf:RDF>
      <cc:Work
         rdf:about="">
        <dc:format>image/svg+xml</dc:format>
        <dc:type
           rdf:resource="http://purl.org/dc/dcmitype/StillImage" />
        <dc:title></dc:title>
      </cc:Work>
    </rdf:RDF>
  </metadata>
  <sodipodi:namedview
     pagecolor="#ffffff"
     bordercolor="#666666"
     borderopacity="1"
     objecttolerance="10"
     gridtolerance="10"
     guidetolerance="10"
     inkscape:pageopacity="0"
     inkscape:pageshadow="2"
     inkscape:window-width="1920"
     inkscape:window-height="1058"
     id="namedview158"
     showgrid="false"
     fit-margin-top="0"
     fit-margin-left="0"
     fit-margin-right="0"
     fit-margin-bottom="0"
     inkscape:zoom="4.72"
     inkscape:cx="363.24152"
     inkscape:cy="196.5344"
     inkscape:window-x="1912"
     inkscape:window-y="-8"
     inkscape:window-maximized="1"
     inkscape:current-layer="g6" />
  <defs
     id="defs4" />
  <g
     id="g6"
     transform="matrix(-1,0,0,1,594.00763,1.0949152)">
    <path
       d="m 135.10763,79.255085 q -1.65,-3.45 -0.25,-6.95 1.35,-3.4 4.95,-4.85 2.25,-0.85 4.55,-0.6 2,0.4 4.1,1.25 5.75,2.3 8.9,6.35 3.1,4.15 1.75,7.55 -1.4,3.5 -6.45,4.25 -5.1,0.85 -10.85,-1.45 -2.1,-0.85 -3.85,-1.95 -1.85,-1.35 -2.85,-3.6"
       id="path8"
       inkscape:connector-curvature="0"
       style="fill:#484848;stroke:none" />
    <path
       d="m 124.35763,73.105085 -1.1,-0.05 q -4.7,-0.7 -10.7,-3.2 -12.55,-5.75 -11.5,-9.65 l 0.15,-0.3 q 3.55,-7.7 16.65,-2.7 3.6,1.4 6.05,3.5 1.85,1.35 3.25,3.1 l 0.7,0.9 q 0.35,1.55 0.15,3.25 -0.1,1.55 -0.75,3.1 l -1.05,1.25 q -0.75,0.5 -1.85,0.8"
       id="path10"
       inkscape:connector-curvature="0"
       style="fill:#ececec;stroke:none" />
    <path
       d="m 104.85763,53.855085 q 5.45,-6.55 16.75,1.7 3.1,2.3 5,4.9 1.4,1.85 2.3,3.85 l 0.45,0.95 q -0.05,1.7 -0.7,3.3 -0.5,1.45 -1.55,2.8 -0.45,0.6 -1.35,0.95 l -1.95,0.3 -1.05,-0.35 q -4.4,-1.9 -9.5,-5.9 -10.7,-8.75 -8.6,-12.25 l 0.2,-0.25"
       id="path12"
       inkscape:connector-curvature="0"
       style="fill:#ffffff;stroke:none" />
    <path
       d="m 135.95763,55.855085 q 7.55,0 12.9,5.35 3.8,3.8 4.9,8.75 l -6.35,6.2 -1.15,1.3 q -0.3,0.5 -0.25,1.1 0.25,4.8 -3.15,6.75 -2.85,1.55 -6.9,1.55 -7.55,0 -12.9,-1.8 l -2.4,-0.95 q -2.95,-4.4 -2.95,-10 0,-7.55 5.35,-12.9 5.35,-5.35 12.9,-5.35"
       id="path14"
       inkscape:connector-curvature="0"
       style="fill:#404040;stroke:none" />
    <path
       d="m 137.50763,69.905085 q 0.9,0.9 0.9,2.05 0,1.2 -0.9,2 -0.85,0.85 -2,0.85 -1.2,0 -2.1,-0.85 -0.8,-0.8 -0.8,-2 l 0.05,-0.45 4.75,-1.7 0.1,0.1 m -7.2,5.25 q 1.75,0 2.95,1 l 1.1,1.4 0,0.45 -0.3,0.3 -0.45,0 q -0.25,-0.1 -0.35,-0.3 l -0.7,-0.95 q -0.95,-0.75 -2.25,-0.75 -1.3,0 -2.2,0.75 -0.55,0.4 -0.75,0.9 l -0.25,0.3 -0.45,0.1 -0.35,-0.3 -0.05,-0.45 q 0.25,-0.85 1.05,-1.45 1.3,-1 3,-1 m -3.1,-1.2 q -0.85,0.85 -2,0.85 -1.25,0 -2.1,-0.85 -0.8,-0.8 -0.8,-2 0,-1.1 0.75,-2 l 4.95,1.3 0.1,0.7 q 0,1.2 -0.9,2"
       id="path16"
       inkscape:connector-curvature="0"
       style="fill:#999999;stroke:none" />
    <path
       d="m 149.95763,73.055085 -1.1,0.05 q -1.1,-0.3 -1.85,-0.8 -0.75,-0.55 -1.05,-1.25 -0.65,-1.55 -0.75,-3.1 -0.2,-1.7 0.15,-3.25 l 0.7,-0.9 q 1.4,-1.75 3.25,-3.1 2.45,-2.1 6.05,-3.5 13.1,-5 16.65,2.7 l 0.15,0.3 q 1.05,3.9 -11.5,9.65 -6,2.5 -10.7,3.2"
       id="path18"
       inkscape:connector-curvature="0"
       style="fill:#ececec;stroke:none" />
    <path
       d="m 168.55763,54.105085 q 2.1,3.5 -8.6,12.25 -5.1,4 -9.5,5.9 l -1.05,0.35 -1.95,-0.3 q -0.9,-0.35 -1.35,-0.95 -1.05,-1.35 -1.55,-2.8 -0.65,-1.6 -0.7,-3.3 l 0.45,-0.95 q 0.9,-2 2.3,-3.85 1.9,-2.6 5,-4.9 11.3,-8.25 16.75,-1.7 l 0.2,0.25"
       id="path20"
       inkscape:connector-curvature="0"
       style="fill:#ffffff;stroke:none" />
    <path
       d="m 201.50763,71.905085 -5.15,1.25 q -13.65,2.3 -14.95,-1.5 l -0.05,-0.35 q -0.25,-1.6 0.05,-3.05 2.55,2.65 13.1,3.6 l 7,0.05"
       id="path22"
       inkscape:connector-curvature="0"
       style="fill:#ececec;stroke:none" />
    <path
       d="m 201.50763,71.905085 -7,-0.05 q -10.55,-0.95 -13.1,-3.6 -0.8,-0.8 -0.85,-1.75 l 0,-0.3 q 0.85,-8.45 14.8,-8 3.55,0.15 6.35,1.05 l 0.55,0.2 q 2.2,0.75 4.05,1.9 l 0.95,0.5 q 0.9,1.4 1.25,3.15 0.35,1.35 0.3,2.9 l 0,0.25 q -0.05,0.75 -0.6,1.55 l -1.4,1.35 -1.1,0.3 -4.2,0.55"
       id="path24"
       inkscape:connector-curvature="0"
       style="fill:#ffffff;stroke:none" />
    <path
       d="m 237.35763,74.455085 q 3.1,4.15 1.75,7.55 -1.4,3.5 -6.45,4.25 -5.1,0.85 -10.85,-1.45 -2.1,-0.85 -3.85,-1.95 -1.85,-1.35 -2.85,-3.6 -1.65,-3.45 -0.25,-6.95 1.35,-3.4 4.95,-4.85 2.25,-0.85 4.55,-0.6 l 4.1,1.25 q 5.75,2.3 8.9,6.35"
       id="path26"
       inkscape:connector-curvature="0"
       style="fill:#484848;stroke:none" />
    <path
       d="m 227.40763,76.155085 -1.15,1.3 q -0.3,0.5 -0.25,1.1 0.25,4.8 -3.15,6.75 -2.85,1.55 -6.9,1.55 -7.55,0 -12.9,-1.8 l -2.4,-0.95 q -2.95,-4.4 -2.95,-10 0,-7.55 5.35,-12.9 5.35,-5.35 12.9,-5.35 7.55,0 12.9,5.35 3.8,3.8 4.9,8.75 l -6.35,6.2"
       id="path28"
       inkscape:connector-curvature="0"
       style="fill:#404040;stroke:none" />
    <path
       d="m 217.50763,69.905085 q 0.9,0.9 0.9,2.05 0,1.2 -0.9,2 -0.85,0.85 -2,0.85 -1.2,0 -2.1,-0.85 -0.8,-0.8 -0.8,-2 l 0.05,-0.45 4.75,-1.7 0.1,0.1 m -9.4,7.15 q -0.55,0.4 -0.75,0.9 l -0.25,0.3 -0.45,0.1 -0.35,-0.3 -0.05,-0.45 q 0.25,-0.85 1.05,-1.45 1.3,-1 3,-1 1.75,0 2.95,1 0.8,0.6 1.1,1.4 l 0,0.45 -0.3,0.3 -0.45,0 -0.35,-0.3 -0.7,-0.95 q -0.95,-0.75 -2.25,-0.75 -1.3,0 -2.2,0.75 m -2.9,-2.25 q -1.25,0 -2.1,-0.85 -0.8,-0.8 -0.8,-2 0,-1.1 0.75,-2 l 4.95,1.3 0.1,0.7 q 0,1.2 -0.9,2 -0.85,0.85 -2,0.85"
       id="path30"
       inkscape:connector-curvature="0"
       style="fill:#999999;stroke:none" />
    <path
       d="m 233.75763,72.855085 -4.25,-0.55 -1.1,-0.3 -1.4,-1.35 q -0.55,-0.8 -0.6,-1.55 l 0,-0.25 q -0.05,-1.55 0.3,-2.9 0.35,-1.75 1.25,-3.15 l 0.95,-0.5 q 1.85,-1.15 4.05,-1.9 l 0.55,-0.2 q 2.8,-0.9 6.35,-1.05 13.95,-0.45 14.8,8 l 0,0.3 q -0.05,0.95 -0.8,1.75 -2.6,2.65 -13.15,3.6 l -6.95,0.05"
       id="path32"
       inkscape:connector-curvature="0"
       style="fill:#ffffff;stroke:none" />
    <path
       d="m 233.75763,72.855085 6.95,-0.05 q 10.55,-0.95 13.15,-3.6 0.25,1.45 0,3.05 l -0.05,0.35 q -1.3,3.8 -14.95,1.5 l -5.1,-1.25"
       id="path34"
       inkscape:connector-curvature="0"
       style="fill:#ececec;stroke:none" />
    <path
       d="m 268.15763,76.955085 -0.1,-0.25 q -0.8,-2.9 8.65,-7.2 4.5,-1.9 8,-2.4 l 0.85,-0.05 q 0.8,0.2 1.35,0.6 0.6,0.4 0.8,0.95 l 0.55,2.3 q 0.15,1.3 -0.1,2.45 l -0.5,0.65 q -1.05,1.35 -2.45,2.35 -1.85,1.55 -4.55,2.6 -9.8,3.75 -12.5,-2"
       id="path36"
       inkscape:connector-curvature="0"
       style="fill:#ececec;stroke:none" />
    <path
       d="m 277.20763,72.105085 q 3.85,-3 7.15,-4.4 l 0.75,-0.3 1.5,0.25 q 0.65,0.25 1,0.7 0.8,1 1.15,2.1 0.5,1.2 0.55,2.5 l -0.35,0.7 -1.75,2.9 q -1.4,1.95 -3.75,3.65 -8.45,6.2 -12.55,1.3 l -0.15,-0.2 q -1.55,-2.65 6.45,-9.2"
       id="path38"
       inkscape:connector-curvature="0"
       style="fill:#ffffff;stroke:none" />
    <path
       d="m 295.10763,58.455085 q 1,-2.25 2.85,-3.6 1.75,-1.1 3.85,-1.95 5.75,-2.3 10.85,-1.45 5.05,0.75 6.45,4.25 1.35,3.4 -1.75,7.55 -3.15,4.05 -8.9,6.35 l -4.1,1.25 q -2.3,0.25 -4.55,-0.6 -3.6,-1.45 -4.95,-4.85 -1.4,-3.5 0.25,-6.95"
       id="path40"
       inkscape:connector-curvature="0"
       style="fill:#484848;stroke:none" />
    <path
       d="m 283.05763,52.655085 q 5.35,-1.8 12.9,-1.8 4.05,0 6.9,1.55 3.4,1.95 3.15,6.75 -0.05,0.6 0.25,1.1 l 1.15,1.3 6.35,6.2 q -1.1,4.95 -4.9,8.75 -5.35,5.35 -12.9,5.35 -7.55,0 -12.9,-5.35 -5.35,-5.35 -5.35,-12.9 0,-5.6 2.95,-10 l 2.4,-0.95"
       id="path42"
       inkscape:connector-curvature="0"
       style="fill:#404040;stroke:none" />
    <path
       d="m 283.20763,63.855085 q 0.85,-0.85 2,-0.85 1.25,0 2.1,0.85 0.8,0.8 0.8,2 0,1.1 -0.75,2 l -4.95,-1.3 -0.1,-0.7 q 0,-1.2 0.9,-2 m 15.15,2.45 -4.75,1.7 -0.1,-0.1 q -0.9,-0.9 -0.9,-2.05 0,-1.2 0.9,-2 0.85,-0.85 2,-0.85 1.2,0 2.1,0.85 0.8,0.8 0.8,2 l -0.05,0.45 m -4,-6.5 0,0.45 -1.1,1.4 q -1.2,1 -2.95,1 -1.7,0 -3,-1 -0.8,-0.6 -1.05,-1.45 -0.05,-0.25 0.05,-0.45 0.1,-0.2 0.35,-0.3 l 0.45,0.1 0.25,0.3 0.75,0.9 q 0.9,0.75 2.2,0.75 1.3,0 2.25,-0.75 l 0.7,-0.95 0.35,-0.3 0.45,0 0.3,0.3"
       id="path44"
       inkscape:connector-curvature="0"
       style="fill:#999999;stroke:none" />
    <path
       d="m 307.65763,67.005085 0.85,0.05 q 3.5,0.55 8,2.4 9.4,4.3 8.65,7.25 l -0.15,0.2 q -2.65,5.8 -12.45,2.05 -2.7,-1.05 -4.55,-2.65 -1.4,-1 -2.45,-2.3 l -0.5,-0.7 q -0.3,-1.15 -0.15,-2.4 0.1,-1.2 0.6,-2.35 l 0.75,-0.95 q 0.6,-0.35 1.4,-0.6"
       id="path46"
       inkscape:connector-curvature="0"
       style="fill:#ececec;stroke:none" />
    <path
       d="m 308.05763,67.405085 0.8,0.3 q 3.3,1.4 7.15,4.4 8,6.55 6.45,9.2 l -0.15,0.2 q -4.1,4.9 -12.6,-1.3 -2.3,-1.7 -3.75,-3.65 l -1.7,-2.9 -0.35,-0.7 q 0.05,-1.3 0.55,-2.5 0.35,-1.1 1.15,-2.1 0.35,-0.45 1,-0.7 l 1.45,-0.25"
       id="path48"
       inkscape:connector-curvature="0"
       style="fill:#ffffff;stroke:none" />
    <path
       d="m 136.20763,7.5050848 q 0,0.65 0.45,1.1 0.45,0.45 1.1,0.45 0.65,0 1.1,-0.45 0.45,-0.45 0.45,-1.1 0,-0.65 -0.45,-1.1 -0.45,-0.45 -1.1,-0.45 -0.65,0 -1.1,0.45 -0.45,0.45 -0.45,1.1 m -7.85,-2.65 q -0.9,0.9 -0.9,2.2 0,1.3 0.9,2.2 0.9,0.9000002 2.2,0.9000002 1.3,0 2.2,-0.9000002 0.9,-0.9 0.9,-2.2 0,-1.3 -0.9,-2.2 -0.9,-0.9 -2.2,-0.9 -1.3,0 -2.2,0.9 m 12.85,0.25 q 4.85,4.85 5.9,11.3000002 -0.25,4.2 7.35,7.95 l 0,2.5 -48.4,0 q -1.05,-3.15 -1.05,-6.75 0,-8.8 6.2,-15.0000002 6.2,-6.2 15,-6.2 8.8,0 15,6.2 m -3.65,10.2500002 q 0.95,-0.95 0.95,-2.3 0,-1.35 -0.95,-2.3 -0.95,-0.9500002 -2.3,-0.9500002 -1.35,0 -2.3,0.9500002 -0.95,0.95 -0.95,2.3 0,1.35 0.95,2.3 0.95,0.95 2.3,0.95 1.35,0 2.3,-0.95"
       id="path50"
       inkscape:connector-curvature="0"
       style="fill:#e98af4;stroke:none" />
    <path
       d="m 137.55763,15.355085 q -0.95,0.95 -2.3,0.95 -1.35,0 -2.3,-0.95 -0.95,-0.95 -0.95,-2.3 0,-1.35 0.95,-2.3 0.95,-0.9500002 2.3,-0.9500002 1.35,0 2.3,0.9500002 0.95,0.95 0.95,2.3 0,1.35 -0.95,2.3 m -9.2,-10.5000002 q 0.9,-0.9 2.2,-0.9 1.3,0 2.2,0.9 0.9,0.9 0.9,2.2 0,1.3 -0.9,2.2 -0.9,0.9000002 -2.2,0.9000002 -1.3,0 -2.2,-0.9000002 -0.9,-0.9 -0.9,-2.2 0,-1.3 0.9,-2.2 m 7.85,2.65 q 0,-0.65 0.45,-1.1 0.45,-0.45 1.1,-0.45 0.65,0 1.1,0.45 0.45,0.45 0.45,1.1 0,0.65 -0.45,1.1 -0.45,0.45 -1.1,0.45 -0.65,0 -1.1,-0.45 -0.45,-0.45 -0.45,-1.1"
       id="path52"
       inkscape:connector-curvature="0"
       style="fill:#eda3f5;stroke:none" />
    <path
       d="m 120.55763,14.105085 5.25,-1.85 0.1,0.1 q 1,1 1,2.25 0,1.3 -1,2.2 -0.9,0.95 -2.2,0.95 -1.3,0 -2.3,-0.95 -0.9,-0.9 -0.9,-2.2 l 0.05,-0.5 m -5,0.5 q 0,1.3 -1,2.2 -0.9,0.95 -2.2,0.95 -1.35,0 -2.3,-0.95 -0.9,-0.9 -0.9,-2.2 0,-1.2 0.85,-2.2 l 5.45,1.45 0.1,0.75 m -0.85,4.6 q 1.4,-1.05 3.3,-1.05 1.9,0 3.25,1.05 0.85,0.7 1.2,1.55 l 0,0.5 -0.35,0.35 -0.5,0 -0.35,-0.35 q -0.25,-0.6 -0.8,-1.05 -1.05,-0.8 -2.45,-0.8 -1.45,0 -2.45,0.8 -0.6,0.45 -0.8,1 l -0.3,0.35 -0.5,0.1 -0.35,-0.35 -0.1,-0.5 q 0.3,-0.9 1.2,-1.6"
       id="path54"
       inkscape:connector-curvature="0"
       style="fill:#d244e2;stroke:none" />
    <path
       d="m 209.10763,6.7550848 0.15,0.1 q 5.3,4.4500002 6.9,10.4000002 0.15,3.85 8.1,7.3 l 0.2,2.3 -48.4,0 q -1.35,-2.9 -1.65,-6.2 -0.8,-8.1 4.85,-13.8000002 5.65,-5.7 14.45,-5.7 8.15,0 14.5,4.9 l -0.45,-0.1 q -0.65,0 -1.1,0.45 -0.45,0.45 -0.45,1.1 0,0.65 0.45,1.1 0.45,0.45 1.1,0.45 0.65,0 1.1,-0.45 0.45,-0.45 0.45,-1.1 l -0.2,-0.75 m -6.15,4.0000002 q -0.95,0.95 -0.95,2.3 0,1.35 0.95,2.3 0.95,0.95 2.3,0.95 1.35,0 2.3,-0.95 0.95,-0.95 0.95,-2.3 0,-1.35 -0.95,-2.3 -0.95,-0.9500002 -2.3,-0.9500002 -1.35,0 -2.3,0.9500002 m -2.4,-6.8000002 q -1.3,0 -2.2,0.9 -0.9,0.9 -0.9,2.2 0,1.3 0.9,2.2 0.9,0.9000002 2.2,0.9000002 1.3,0 2.2,-0.9000002 0.9,-0.9 0.9,-2.2 0,-1.3 -0.9,-2.2 -0.9,-0.9 -2.2,-0.9"
       id="path56"
       inkscape:connector-curvature="0"
       style="fill:#e98af4;stroke:none" />
    <path
       d="m 200.55763,3.9550848 q 1.3,0 2.2,0.9 0.9,0.9 0.9,2.2 0,1.3 -0.9,2.2 -0.9,0.9000002 -2.2,0.9000002 -1.3,0 -2.2,-0.9000002 -0.9,-0.9 -0.9,-2.2 0,-1.3 0.9,-2.2 0.9,-0.9 2.2,-0.9 m 7.65,2.1 0.9,0.7 0.2,0.75 q 0,0.65 -0.45,1.1 -0.45,0.45 -1.1,0.45 -0.65,0 -1.1,-0.45 -0.45,-0.45 -0.45,-1.1 0,-0.65 0.45,-1.1 0.45,-0.45 1.1,-0.45 l 0.45,0.1 m -5.25,4.7000002 q 0.95,-0.9500002 2.3,-0.9500002 1.35,0 2.3,0.9500002 0.95,0.95 0.95,2.3 0,1.35 -0.95,2.3 -0.95,0.95 -2.3,0.95 -1.35,0 -2.3,-0.95 -0.95,-0.95 -0.95,-2.3 0,-1.35 0.95,-2.3"
       id="path58"
       inkscape:connector-curvature="0"
       style="fill:#eda3f5;stroke:none" />
    <path
       d="m 180.00763,13.405085 5.45,1.45 0.1,0.75 q 0,1.3 -1,2.2 -0.9,0.95 -2.2,0.95 -1.35,0 -2.3,-0.95 -0.9,-0.9 -0.9,-2.2 0,-1.2 0.85,-2.2 m 13.7,5.35 q -1.3,0 -2.3,-0.95 -0.9,-0.9 -0.9,-2.2 l 0.05,-0.5 5.25,-1.85 0.1,0.1 q 1,1 1,2.25 0,1.3 -1,2.2 -0.9,0.95 -2.2,0.95 m -5.7,1.65 q -1.45,0 -2.45,0.8 -0.6,0.45 -0.8,1 l -0.3,0.35 -0.5,0.1 -0.35,-0.35 -0.1,-0.5 q 0.3,-0.9 1.2,-1.6 1.4,-1.05 3.3,-1.05 1.9,0 3.25,1.05 0.85,0.7 1.2,1.55 l 0,0.5 -0.35,0.35 -0.5,0 -0.35,-0.35 -0.8,-1.05 q -1.05,-0.8 -2.45,-0.8"
       id="path60"
       inkscape:connector-curvature="0"
       style="fill:#d244e2;stroke:none" />
    <path
       d="m 282.25763,15.955085 4.2,1.25 0.85,0.3 0.15,0.05 q 5,2.05 6.25,4.85 -0.05,1.75 7.7,3.4 l 0.05,1.05 -57.8,0 0,-0.35 q 2.85,-0.7 3.65,-1.95 1,-1.65 2.35,-3.1 1.35,-1.45 7.55,-4 6.2,-2.55 15,-2.55 l 3.9,0.15 0,0.15 q 0,1.3 0.9,2.2 0.9,0.9 2.2,0.9 1.3,0 2.2,-0.9 l 0.85,-1.45 m -0.65,2.95 q -0.95,0.95 -0.95,2.3 0,1.35 0.95,2.3 0.95,0.95 2.3,0.95 1.35,0 2.3,-0.95 0.95,-0.95 0.95,-2.3 0,-1.35 -0.95,-2.3 -0.95,-0.95 -2.3,-0.95 -1.35,0 -2.3,0.95"
       id="path62"
       inkscape:connector-curvature="0"
       style="fill:#e98af4;stroke:none" />
    <path
       d="m 281.60763,18.905085 q 0.95,-0.95 2.3,-0.95 1.35,0 2.3,0.95 0.95,0.95 0.95,2.3 0,1.35 -0.95,2.3 -0.95,0.95 -2.3,0.95 -1.35,0 -2.3,-0.95 -0.95,-0.95 -0.95,-2.3 0,-1.35 0.95,-2.3 m -5.5,-3.85 6.15,0.9 -0.85,1.45 q -0.9,0.9 -2.2,0.9 -1.3,0 -2.2,-0.9 -0.9,-0.9 -0.9,-2.2 l 0,-0.15"
       id="path64"
       inkscape:connector-curvature="0"
       style="fill:#eda3f5;stroke:none" />
    <path
       d="m 256.20763,21.505085 5.45,-0.85 q 0.85,0.6 0.85,1.35 0,0.75 -0.9,1.3 -0.95,0.6 -2.3,0.6 -1.3,0 -2.2,-0.6 -1,-0.55 -1,-1.3 l 0.1,-0.5 m 5.45,2.4 q 1.4,-0.6 3.3,-0.6 1.9,0 3.25,0.6 0.85,0.45 1.2,0.95 l 0,0.3 -0.35,0.2 -0.5,0 -0.35,-0.2 -0.8,-0.65 -2.45,-0.45 -2.45,0.45 -0.8,0.65 -0.3,0.2 -0.5,0.05 -0.35,-0.2 -0.1,-0.3 q 0.3,-0.55 1.2,-1 m 6.8,-3.3 0.1,-0.05 5.25,1.15 0.05,0.3 q 0,0.75 -0.9,1.3 -1,0.6 -2.3,0.6 -1.3,0 -2.2,-0.6 -1,-0.55 -1,-1.3 0,-0.8 1,-1.4"
       id="path66"
       inkscape:connector-curvature="0"
       style="fill:#d244e2;stroke:none" />
    <path
       d="m 143.15763,118.25508 q 5,2.3 9.05,5.9 1.85,3.5 0,7 -8.1,8.75 -21.5,10.6 l -1.55,0.15 -12.15,0 -1.2,0 q -5.45,0 -9.25,-4.1 -3.85,-4.1 -3.85,-9.9 0,-5.8 3.85,-9.9 3.8,-4.1 9.25,-4.1 l 0.95,0 8.4,0 q 10.2,0.65 18,4.35"
       id="path68"
       inkscape:connector-curvature="0"
       style="fill:#80be1f;stroke:none" />
    <path
       d="m 143.15763,118.25508 q -7.8,-3.7 -18,-4.35 l -8.4,0 q -0.15,-3.35 -1.7,-6.45 l 1.35,-2.1 19.5,4.55 q 6,1.3 7.25,6 l 0,2.35 m 9.05,5.9 11.15,-5.4 q 4.4,-2.1 4.45,0.4 -2.85,8.9 -2.1,19.25 l -13.5,-7.25 q 1.85,-3.5 0,-7 m -21.5,17.6 0.75,1.65 q -7.8,0.75 -11.5,2.75 -2.9,-1.65 -2.95,-4.25 l 12.15,0 1.55,-0.15"
       id="path70"
       inkscape:connector-curvature="0"
       style="fill:#8bcb27;stroke:none" />
    <path
       d="m 106.90763,124.20508 6.95,-2.5 0.15,0.15 q 1.35,1.3 1.35,3 0,1.75 -1.35,2.95 -1.25,1.2 -2.9,1.2 -1.8,0 -3.1,-1.2 -1.15,-1.2 -1.15,-2.95 l 0.05,-0.65 m 0.9,6.8 q 1.15,0.9 1.6,2.05 l 0,0.65 -0.45,0.45 -0.65,0 -0.5,-0.45 -1.05,-1.35 q -1.4,-1.15 -3.3,-1.15 l -0.5,0.05 -0.25,-1.7 0.75,0 q 2.55,0 4.35,1.45"
       id="path72"
       inkscape:connector-curvature="0"
       style="fill:#5f8c19;stroke:none" />
    <path
       d="m 121.35763,130.40508 11.1,-1.25 6.65,4.65 -13.5,2.5 -4.25,-5.9"
       id="path74"
       inkscape:connector-curvature="0"
       style="fill:#8bcb27;stroke:none" />
    <path
       d="m 232.15763,124.15508 q 1.5,4 0,7 l -0.25,0.35 q -8.05,8.45 -21.2,10.25 l -1.55,0.15 -12.15,0 -1.2,0 q -5.45,0 -9.25,-4.1 -3.85,-4.1 -3.85,-9.9 0,-5.8 3.85,-9.9 3.8,-4.1 9.25,-4.1 l 0.95,0 8.4,0 q 10.2,0.65 18,4.35 4.8,2.2 8.75,5.65 l 0.25,0.25"
       id="path76"
       inkscape:connector-curvature="0"
       style="fill:#80be1f;stroke:none" />
    <path
       d="m 232.15763,124.15508 8.15,-6.1 q 3.2,-2.4 3.25,0.1 -2.1,9.1 -1.55,19.4 l -9.85,-6.4 q 1.5,-3 0,-7 m -21.45,17.6 0.75,1.65 q -5.25,1.2 -7.75,4 -6.65,-2.9 -6.7,-5.5 l 12.15,0 1.55,-0.15 m -13.95,-27.85 q -0.15,-3.35 -1.7,-6.45 l 1.35,-2.1 19.5,4.55 q 6,1.3 7.25,6 l 0,2.35 q -7.8,-3.7 -18,-4.35 l -8.4,0"
       id="path78"
       inkscape:connector-curvature="0"
       style="fill:#8bcb27;stroke:none" />
    <path
       d="m 186.90763,124.20508 6.95,-2.5 0.15,0.15 q 1.35,1.3 1.35,3 0,1.75 -1.35,2.95 -1.25,1.2 -2.9,1.2 -1.8,0 -3.1,-1.2 -1.15,-1.2 -1.15,-2.95 l 0.05,-0.65 m 0.9,6.8 q 1.15,0.9 1.6,2.05 l 0,0.65 -0.45,0.45 -0.65,0 -0.5,-0.45 q -0.3,-0.8 -1.05,-1.35 -1.4,-1.15 -3.3,-1.15 l -0.5,0.05 -0.25,-1.7 0.75,0 q 2.55,0 4.35,1.45"
       id="path80"
       inkscape:connector-curvature="0"
       style="fill:#5f8c19;stroke:none" />
    <path
       d="m 201.45763,130.10508 10.95,-0.95 7.15,3.45 -13.25,1.8 -4.85,-4.3"
       id="path82"
       inkscape:connector-curvature="0"
       style="fill:#8bcb27;stroke:none" />
    <path
       d="m 277.00763,109.60508 12.15,0 1.55,0.15 q 13.35,1.85 21.45,10.55 1.95,2.55 0,7.1 -4.05,3.55 -9,5.85 -7.8,3.7 -18,4.35 l -8.4,0 -0.95,0 q -5.45,0 -9.25,-4.1 -3.85,-4.1 -3.85,-9.9 0,-5.8 3.85,-9.9 3.8,-4.1 9.25,-4.1 l 1.2,0"
       id="path84"
       inkscape:connector-curvature="0"
       style="fill:#80be1f;stroke:none" />
    <path
       d="m 277.00763,109.60508 q 0.05,-2.6 2.95,-4.25 3.7,2 11.5,2.75 l -0.75,1.65 -1.55,-0.15 -12.15,0 m 35.15,10.7 0.05,0.05 13.5,-7.25 q -0.75,10.35 2.1,19.25 -0.05,2.5 -4.45,0.4 l -11.15,-5.4 -0.05,0.05 q 1.95,-4.55 0,-7.1 m -9,12.95 0,2.35 q -1.25,4.7 -7.25,6 l -19.5,4.55 -1.35,-2.1 q 1.55,-3.1 1.7,-6.45 l 8.4,0 q 10.2,-0.65 18,-4.35"
       id="path86"
       inkscape:connector-curvature="0"
       style="fill:#8bcb27;stroke:none" />
    <path
       d="m 263.45763,121.95508 -0.75,0 0.25,-1.7 0.5,0.05 q 1.9,0 3.3,-1.15 l 1.05,-1.35 0.5,-0.45 q 0.3,-0.15 0.65,0 l 0.45,0.45 0,0.65 q -0.45,1.15 -1.6,2.05 -1.8,1.45 -4.35,1.45 m 4.75,1.75 q 1.25,-1.2 2.9,-1.2 1.8,0 3.1,1.2 1.15,1.2 1.15,2.95 l -0.05,0.65 -6.95,2.5 -0.15,-0.15 q -1.35,-1.3 -1.35,-3 0,-1.75 1.35,-2.95"
       id="path88"
       inkscape:connector-curvature="0"
       style="fill:#5f8c19;stroke:none" />
    <path
       d="m 285.60763,115.20508 13.5,2.5 -6.65,4.65 -11.1,-1.25 4.25,-5.9"
       id="path90"
       inkscape:connector-curvature="0"
       style="fill:#8bcb27;stroke:none" />
    <path
       d="m 184.15763,195.80508 0,-0.05 q 0,-3.55 3.3,-6.1 3.3,-2.45 8,-2.45 l 18.2,0 q 10.95,0.65 22.5,7.95 1.95,1.6 0,2.45 l -51.75,0 q -0.25,-0.85 -0.25,-1.8"
       id="path92"
       inkscape:connector-curvature="0"
       style="fill:#ffcc00;stroke:none" />
    <path
       d="m 193.40763,191.15508 -2.9,0.9 q -2.35,-7.75 -9.35,-14.2 l 2.05,-2.2 q 7.6,7.1 10.2,15.5 m -4.45,-17.65 2.75,-1.25 q 4.35,9.65 6.35,18.4 l -2.95,0.65 q -1.9,-8.4 -6.15,-17.8"
       id="path94"
       inkscape:connector-curvature="0"
       style="fill:#ffcc00;stroke:none" />
    <path
       d="m 194.85763,193.50508 q -0.85,0.8 -1.95,0.8 -1.15,0 -2.05,-0.8 -0.75,-0.8 -0.75,-1.95 l 0.05,-0.45 4.6,-1.65 0.1,0.1 q 0.9,0.85 0.9,2 0,1.15 -0.9,1.95"
       id="path96"
       inkscape:connector-curvature="0"
       style="fill:#d2a800;stroke:none" />
    <path
       d="m 212.25763,194.90508 q -3.85,-1.2 -6.85,-3.05 l -2,-1.4 q -3.95,-3.05 -4.1,-6.15 l 0,-0.25 0.05,-0.7 0.2,-1.25 q 1.55,-7.6 8,-11.85 6.5,-4.15 14.1,-2.6 7.55,1.55 11.75,8 4.25,6.45 2.7,14.05 l -0.25,1.25 -0.25,0.6 -0.1,0.25 q -1.4,2.8 -6.25,4.05 l -2.4,0.4 q -4.25,0.7 -9.25,-0.1 l -8.75,-9.65 5.4,-7.85 9.75,0.55 2.15,5.55 -3.4,2.5 -4.35,-3.85 -3.35,2.85 7.55,4.9 7.65,-5.1 -4.15,-9.75 -14.25,-2 -7.2,12.65 7.6,7.95"
       id="path98"
       inkscape:connector-curvature="0"
       style="fill:#e98af4;stroke:none" />
    <path
       d="m 212.25763,194.90508 -7.6,-7.95 7.2,-12.65 14.25,2 4.15,9.75 -7.65,5.1 -7.55,-4.9 3.35,-2.85 4.35,3.85 3.4,-2.5 -2.15,-5.55 -9.75,-0.55 -5.4,7.85 8.75,9.65 -1.8,-0.35 -0.55,-0.1 -3,-0.8"
       id="path100"
       inkscape:connector-curvature="0"
       style="fill:#eda3f5;stroke:none" />
    <path
       d="m 276.65763,196.80508 -8.4,-1.2 -2.5,-0.7 q -4.8,-1.35 -5.7,-3.15 l -0.15,-0.5 q -0.15,-0.05 -0.05,-0.3 l -0.15,-0.85 0,-1.4 q 0.35,-9 6.9,-15.05 6.65,-5.95 15.6,-5.75 8.95,0.35 14.95,6.95 6.15,6.5 5.75,15.5 l 0,1.4 0,0.1 -0.15,0.35 -0.05,0.15 q -1.05,2 -6.4,3.25 l -2.75,0.55 -10.45,0.9 -11.95,-5.15 0.1,-0.15 4.6,-9.8 11.25,-1.3 3.6,6.05 -3.5,3.4 -5.75,-3.55 -3.2,3.9 3.05,1.3 6.45,1.6 3.1,-1.6 4.7,-4.4 -6.55,-10.35 -16.75,0.45 -5.2,14.3 -0.55,0.9 10.15,4.15"
       id="path102"
       inkscape:connector-curvature="0"
       style="fill:#e98af4;stroke:none" />
    <path
       d="m 276.65763,196.80508 -10.15,-4.15 0.55,-0.9 5.2,-14.3 16.75,-0.45 6.55,10.35 -4.7,4.4 -3.1,1.6 -6.45,-1.6 -3.05,-1.3 3.2,-3.9 5.75,3.55 3.5,-3.4 -3.6,-6.05 -11.25,1.3 -4.6,9.8 -0.1,0.15 11.95,5.15 -2.2,-0.05 -0.7,0 -3.55,-0.2"
       id="path104"
       inkscape:connector-curvature="0"
       style="fill:#eda3f5;stroke:none" />
    <path
       d="m 346.10763,167.95508 -11.95,5.15 0.1,0.15 4.6,9.8 11.25,1.3 3.6,-6.05 -3.5,-3.4 -5.75,3.55 -3.2,-3.9 3.05,-1.3 6.45,-1.6 3.1,1.6 4.7,4.4 -6.55,10.35 -16.75,-0.45 -5.2,-14.3 -0.55,-0.9 10.15,-4.15 3.55,-0.2 0.7,0 2.2,-0.05"
       id="path106"
       inkscape:connector-curvature="0"
       style="fill:#eda3f5;stroke:none" />
    <path
       d="m 346.10763,167.95508 10.45,0.9 2.75,0.55 q 5.35,1.25 6.4,3.25 l 0.05,0.15 0.15,0.35 0,0.1 0,1.4 q 0.4,9 -5.75,15.5 -6,6.6 -14.95,6.95 -8.95,0.2 -15.6,-5.75 -6.55,-6.05 -6.9,-15.05 l 0,-1.4 0.15,-0.85 q -0.1,-0.25 0.05,-0.3 l 0.15,-0.5 q 0.9,-1.8 5.7,-3.15 l 2.5,-0.7 q 3.85,-0.85 8.4,-1.2 l -10.15,4.15 0.55,0.9 5.2,14.3 16.75,0.45 6.55,-10.35 -4.7,-4.4 -3.1,-1.6 -6.45,1.6 -3.05,1.3 3.2,3.9 5.75,-3.55 3.5,3.4 -3.6,6.05 -11.25,-1.3 -4.6,-9.8 -0.1,-0.15 11.95,-5.15"
       id="path108"
       inkscape:connector-curvature="0"
       style="fill:#e98af4;stroke:none" />
    <path
       d="m 111.05763,187.95508 q 3.05,-3 7.4,-3 l 16.9,0 q 10.15,0.8 20.85,9.65 1.8,1.95 0,3 l -48,0 -0.2,-2.2 0,-0.05 q 0,-4.3 3.05,-7.4"
       id="path110"
       inkscape:connector-curvature="0"
       style="fill:#ffcc00;stroke:none" />
    <path
       d="m 112.10763,172.60508 2.85,-0.9 q 3.1,10.15 3.95,19.05 l -3,0.3 q -0.85,-8.6 -3.8,-18.45 m -8.3,3.25 2.3,-1.9 q 6.65,8.05 8.1,16.7 l -2.95,0.5 q -1.4,-7.95 -7.45,-15.3"
       id="path112"
       inkscape:connector-curvature="0"
       style="fill:#ffcc00;stroke:none" />
    <path
       d="m 116.85763,193.50508 q -0.85,0.8 -1.95,0.8 -1.15,0 -2.05,-0.8 -0.75,-0.8 -0.75,-1.95 l 0.05,-0.45 4.6,-1.65 0.1,0.1 q 0.9,0.85 0.9,2 0,1.15 -0.9,1.95"
       id="path114"
       inkscape:connector-curvature="0"
       style="fill:#d2a800;stroke:none" />
    <path
       d="m 132.25763,194.90508 q -3.85,-1.2 -6.85,-3.05 l -2,-1.4 q -3.95,-3.05 -4.1,-6.15 l 0,-0.25 0.05,-0.7 0.2,-1.25 q 1.55,-7.6 8,-11.85 6.5,-4.15 14.1,-2.6 7.55,1.55 11.75,8 4.25,6.45 2.7,14.05 l -0.25,1.25 -0.25,0.6 -0.1,0.25 q -1.4,2.8 -6.25,4.05 l -2.4,0.4 q -4.25,0.7 -9.25,-0.1 l -8.75,-9.65 5.4,-7.85 9.75,0.55 2.15,5.55 -3.4,2.5 -4.35,-3.85 -3.35,2.85 7.55,4.9 7.65,-5.1 -4.15,-9.75 -14.25,-2 -7.2,12.65 7.6,7.95"
       id="path116"
       inkscape:connector-curvature="0"
       style="fill:#e98af4;stroke:none" />
    <path
       d="m 132.25763,194.90508 -7.6,-7.95 7.2,-12.65 14.25,2 4.15,9.75 -7.65,5.1 -7.55,-4.9 3.35,-2.85 4.35,3.85 3.4,-2.5 -2.15,-5.55 -9.75,-0.55 -5.4,7.85 8.75,9.65 -1.8,-0.35 -0.55,-0.1 -3,-0.8"
       id="path118"
       inkscape:connector-curvature="0"
       style="fill:#eda3f5;stroke:none" />
    <path
       d="m 468.25763,76.355085 0,-1.5 q 0,-1.75 0.25,-3.45 1.05,-7.6 6.8,-13.3 7.05,-6.95 16.95,-6.95 l 0.05,0 q 9.9,0 16.95,6.95 l 1.3,1.4 q 5.7,6.5 5.7,15.35 l 0,1.5 q -0.2,-9.5 -7,-16.25 l -0.15,-0.15 q -7.05,-6.8 -16.8,-6.8 l -0.05,0 q -9.9,0 -16.95,6.95 -4.95,4.9 -6.4,11.2 -0.6,2.4 -0.65,5.05"
       id="path120"
       inkscape:connector-curvature="0"
       style="fill:#f77c2b;stroke:none" />
    <path
       d="m 468.25763,76.355085 q 0.05,-2.65 0.65,-5.05 1.45,-6.3 6.4,-11.2 7.05,-6.95 16.95,-6.95 l 0.05,0 q 9.75,0 16.8,6.8 l 0.15,0.15 q 6.8,6.75 7,16.25 l 0,120.799995 -48,0 0,-120.799995"
       id="path122"
       inkscape:connector-curvature="0"
       style="fill:#e86a17;stroke:none" />
    <path
       d="m 497.00763,81.155085 0.2,-0.2 8.8,3.15 0.05,0.85 q 0,2.2 -1.45,3.7 -1.7,1.55 -3.9,1.55 -2.15,0 -3.7,-1.55 -1.65,-1.5 -1.65,-3.7 0,-2.15 1.65,-3.8 m -5.95,11.85 q -2.4,0 -4.05,1.4 -1.05,0.7 -1.4,1.65 l -0.45,0.55 -0.85,0.2 -0.65,-0.55 q -0.2,-0.4 -0.1,-0.85 0.5,-1.6 1.95,-2.7 2.4,-1.85 5.55,-1.85 3.25,0 5.5,1.85 1.45,1.1 2,2.6 0.2,0.35 0,0.85 l -0.55,0.55 q -0.45,0.2 -0.8,0 l -0.65,-0.55 q -0.4,-1.05 -1.3,-1.75 -1.8,-1.4 -4.2,-1.4 m -9.45,-2.8 q -2.15,0 -3.7,-1.55 -1.7,-1.5 -1.7,-3.7 l 0.2,-1.3 9.15,-2.45 q 1.4,1.7 1.4,3.75 0,2.2 -1.5,3.7 -1.55,1.55 -3.85,1.55"
       id="path124"
       inkscape:connector-curvature="0"
       style="fill:#af4e0e;stroke:none" />
    <path
       d="m 543.25763,159.60508 0,-2.65 q 0,-10 10,-10 l 30.75,0 q 3.5,0 5.75,1.2 4.25,2.3 4.25,8.8 l 0,2.5 q -0.15,-6.15 -4.25,-8.3 -2.25,-1.2 -5.75,-1.2 l -30.75,0 q -9.8,0 -10,9.65"
       id="path126"
       inkscape:connector-curvature="0"
       style="fill:#8bcb27;stroke:none" />
    <path
       d="m 543.25763,159.60508 q 0.2,-9.65 10,-9.65 l 30.75,0 q 3.5,0 5.75,1.2 4.1,2.15 4.25,8.3 l 0,28.65 q -0.1,6.2 -4.25,8.4 -2.25,1.2 -5.75,1.2 l -30.75,0 q -9.8,0 -10,-9.6 l 0,-28.5"
       id="path128"
       inkscape:connector-curvature="0"
       style="fill:#80be1f;stroke:none" />
    <path
       d="m 543.25763,89.605085 0,-2.65 q 0,-10 10,-10 l 30.75,0 q 3.5,0 5.75,1.2 4.25,2.3 4.25,8.8 l 0,2.5 q -0.15,-6.15 -4.25,-8.3 -2.25,-1.2 -5.75,-1.2 l -30.75,0 q -9.8,0 -10,9.65"
       id="path130"
       inkscape:connector-curvature="0"
       style="fill:#8bcb27;stroke:none" />
    <path
       d="m 543.25763,89.605085 q 0.2,-9.65 10,-9.65 l 30.75,0 q 3.5,0 5.75,1.2 4.1,2.15 4.25,8.3 l 0,28.649995 q -0.1,6.2 -4.25,8.4 -2.25,1.2 -5.75,1.2 l -30.75,0 q -9.8,0 -10,-9.6 l 0,-28.499995"
       id="path132"
       inkscape:connector-curvature="0"
       style="fill:#80be1f;stroke:none" />
    <path
       d="m 573.55763,107.70508 q 1.45,1.1 2,2.6 0.2,0.35 0,0.85 l -0.55,0.55 q -0.45,0.2 -0.8,0 l -0.65,-0.55 q -0.4,-1.05 -1.3,-1.75 -1.8,-1.4 -4.2,-1.4 -2.4,0 -4.05,1.4 -1.05,0.7 -1.4,1.65 l -0.45,0.55 -0.85,0.2 -0.65,-0.55 q -0.2,-0.4 -0.1,-0.85 0.5,-1.6 1.95,-2.7 2.4,-1.85 5.55,-1.85 3.25,0 5.5,1.85 m -11.1,-4.05 q -1.55,1.55 -3.85,1.55 -2.15,0 -3.7,-1.55 -1.7,-1.5 -1.7,-3.699995 l 0.2,-1.3 9.15,-2.45 q 1.4,1.7 1.4,3.75 0,2.199995 -1.5,3.699995 m 9.9,-3.699995 q 0,-2.15 1.65,-3.8 l 0.2,-0.2 8.8,3.15 0.05,0.85 q 0,2.199995 -1.45,3.699995 -1.7,1.55 -3.9,1.55 -2.15,0 -3.7,-1.55 -1.65,-1.5 -1.65,-3.699995"
       id="path134"
       inkscape:connector-curvature="0"
       style="fill:#5f8c19;stroke:none" />
    <path
       d="m 543.25763,19.605085 0,-2.65 q 0,-10.0000002 10,-10.0000002 l 30.75,0 q 3.5,0 5.75,1.2 4.25,2.3000002 4.25,8.8000002 l 0,2.5 q -0.15,-6.15 -4.25,-8.3 -2.25,-1.2000002 -5.75,-1.2000002 l -30.75,0 q -9.8,0 -10,9.6500002"
       id="path136"
       inkscape:connector-curvature="0"
       style="fill:#8bcb27;stroke:none" />
    <path
       d="m 543.25763,19.605085 q 0.2,-9.6500002 10,-9.6500002 l 30.75,0 q 3.5,0 5.75,1.2000002 4.1,2.15 4.25,8.3 l 0,28.65 q -0.1,6.2 -4.25,8.4 -2.25,1.2 -5.75,1.2 l -30.75,0 q -9.8,0 -10,-9.6 l 0,-28.5"
       id="path138"
       inkscape:connector-curvature="0"
       style="fill:#80be1f;stroke:none" />
    <path
       d="m 554.65763,26.205085 9.15,2.45 0.2,1.3 q 0,2.2 -1.7,3.7 -1.55,1.55 -3.7,1.55 -2.3,0 -3.85,-1.55 -1.5,-1.5 -1.5,-3.7 0,-2.05 1.4,-3.75 m 26.75,-0.05 q 1.65,1.65 1.65,3.8 0,2.2 -1.65,3.7 -1.55,1.55 -3.7,1.55 -2.2,0 -3.9,-1.55 -1.45,-1.5 -1.45,-3.7 l 0.05,-0.85 8.8,-3.15 0.2,0.2 m -13.35,11.85 q -2.4,0 -4.05,1.4 -1.05,0.7 -1.4,1.65 l -0.45,0.55 -0.85,0.2 -0.65,-0.55 q -0.2,-0.4 -0.1,-0.85 0.5,-1.6 1.95,-2.7 2.4,-1.85 5.55,-1.85 3.25,0 5.5,1.85 1.45,1.1 2,2.6 0.2,0.35 0,0.85 l -0.55,0.55 q -0.45,0.2 -0.8,0 l -0.65,-0.55 q -0.4,-1.05 -1.3,-1.75 -1.8,-1.4 -4.2,-1.4"
       id="path140"
       inkscape:connector-curvature="0"
       style="fill:#5f8c19;stroke:none" />
    <path
       d="m 507.75763,73.155085 q -1,1 -2.4,1 -1.4,0 -2.4,-1 -1,-1 -1,-2.4 0,-1.4 1,-2.4 1,-1 2.4,-1 1.4,0 2.4,1 1,1 1,2.4 0,1.4 -1,2.4 m -9.7,-4.45 q 0,1.7 -1.2,2.85 -1.15,1.2 -2.85,1.2 -1.7,0 -2.9,-1.2 -1.15,-1.15 -1.15,-2.85 0,-1.7 1.15,-2.9 1.2,-1.15 2.9,-1.15 1.7,0 2.85,1.15 1.2,1.2 1.2,2.9 m 1.1,7.8 q 0.45,0.45 0.45,1.05 l -0.45,1 q -0.4,0.45 -1,0.45 -0.6,0 -1.05,-0.45 -0.4,-0.4 -0.4,-1 0,-0.6 0.4,-1.05 0.45,-0.4 1.05,-0.4 l 1,0.4 m -21.55,41.799995 q 0,1.1 -0.8,1.9 -0.8,0.8 -1.9,0.8 -1.1,0 -1.9,-0.8 -0.8,-0.8 -0.8,-1.9 0,-1.1 0.8,-1.9 0.8,-0.8 1.9,-0.8 1.1,0 1.9,0.8 0.8,0.8 0.8,1.9 m 2.85,4.95 q 0,-1.5 1.05,-2.6 1.1,-1.05 2.6,-1.05 1.5,0 2.55,1.05 1.1,1.1 1.1,2.6 0,1.5 -1.1,2.55 -1.05,1.1 -2.55,1.1 -1.5,0 -2.6,-1.1 -1.05,-1.05 -1.05,-2.55 m -0.35,6.6 q 1.4,0 2.4,1 1,1 1,2.4 0,1.4 -1,2.4 -1,1 -2.4,1 -1.4,0 -2.4,-1 -1,-1 -1,-2.4 0,-1.4 1,-2.4 1,-1 2.4,-1 m 29.2,31.85 q -1.4,1.45 -3.45,1.45 -2.05,0 -3.5,-1.45 -1.4,-1.4 -1.4,-3.45 0,-2.05 1.4,-3.5 1.45,-1.4 3.5,-1.4 2.05,0 3.45,1.4 1.45,1.45 1.45,3.5 0,2.05 -1.45,3.45 m -7.65,3.45 q 1.1,1.1 1.1,2.6 0,1.5 -1.1,2.55 -1.05,1.1 -2.55,1.1 -1.5,0 -2.6,-1.1 -1.05,-1.05 -1.05,-2.55 0,-1.5 1.05,-2.6 1.1,-1.05 2.6,-1.05 1.5,0 2.55,1.05 m -2.8,12.35 q 1.15,-1.15 2.75,-1.15 1.6,0 2.75,1.15 1.15,1.15 1.15,2.75 0,1.6 -1.15,2.75 -1.15,1.15 -2.75,1.15 -1.6,0 -2.75,-1.15 -1.15,-1.15 -1.15,-2.75 0,-1.6 1.15,-2.75"
       id="path142"
       inkscape:connector-curvature="0"
       style="fill:#f0711c;stroke:none" />
    <path
       d="m 559.40763,20.855085 q -1.15,1.2 -2.85,1.2 -1.7,0 -2.9,-1.2 -1.15,-1.15 -1.15,-2.85 0,-1.7 1.15,-2.9 1.2,-1.15 2.9,-1.15 1.7,0 2.85,1.15 1.2,1.2 1.2,2.9 0,1.7 -1.2,2.85 m 2.25,4.5 q -0.4,-0.4 -0.4,-1 0,-0.6 0.4,-1.05 0.45,-0.4 1.05,-0.4 0.6,0 1,0.4 0.45,0.45 0.45,1.05 l -0.45,1 q -0.4,0.45 -1,0.45 -0.6,0 -1.05,-0.45 m 10.65,-7.7 q 1,1 1,2.4 0,1.4 -1,2.4 -1,1 -2.4,1 -1.4,0 -2.4,-1 -1,-1 -1,-2.4 0,-1.4 1,-2.4 1,-1 2.4,-1 1.4,0 2.4,1 m 14.65,26.3 q 1.1,1.1 1.1,2.6 0,1.5 -1.1,2.55 -1.05,1.1 -2.55,1.1 -1.5,0 -2.6,-1.1 -1.05,-1.05 -1.05,-2.55 0,-1.5 1.05,-2.6 1.1,-1.05 2.6,-1.05 1.5,0 2.55,1.05 m -11.65,7.3 q -0.8,-0.8 -0.8,-1.9 0,-1.1 0.8,-1.9 0.8,-0.8 1.9,-0.8 1.1,0 1.9,0.8 0.8,0.8 0.8,1.9 0,1.1 -0.8,1.9 -0.8,0.8 -1.9,0.8 -1.1,0 -1.9,-0.8"
       id="path144"
       inkscape:connector-curvature="0"
       style="fill:#82c41b;stroke:none" />
    <path
       d="m 572.30763,87.655085 q 1,1 1,2.4 0,1.4 -1,2.4 -1,1 -2.4,1 -1.4,0 -2.4,-1 -1,-1 -1,-2.4 0,-1.4 1,-2.4 1,-1 2.4,-1 1.4,0 2.4,1 m -11.7,0.35 q 0,1.7 -1.2,2.85 -1.15,1.2 -2.85,1.2 -1.7,0 -2.9,-1.2 -1.15,-1.15 -1.15,-2.85 0,-1.7 1.15,-2.9 1.2,-1.15 2.9,-1.15 1.7,0 2.85,1.15 1.2,1.2 1.2,2.9 m 1.05,5.3 q 0.45,-0.4 1.05,-0.4 0.6,0 1,0.4 0.45,0.45 0.45,1.05 l -0.45,1 q -0.4,0.45 -1,0.45 -0.6,0 -1.05,-0.45 -0.4,-0.4 -0.4,-1 0,-0.6 0.4,-1.05 m 18.25,26.049995 q 0,1.1 -0.8,1.9 -0.8,0.8 -1.9,0.8 -1.1,0 -1.9,-0.8 -0.8,-0.8 -0.8,-1.9 0,-1.1 0.8,-1.9 0.8,-0.8 1.9,-0.8 1.1,0 1.9,0.8 0.8,0.8 0.8,1.9 m 4.5,0.85 q -1.5,0 -2.6,-1.1 -1.05,-1.05 -1.05,-2.55 0,-1.5 1.05,-2.6 1.1,-1.05 2.6,-1.05 1.5,0 2.55,1.05 1.1,1.1 1.1,2.6 0,1.5 -1.1,2.55 -1.05,1.1 -2.55,1.1"
       id="path146"
       inkscape:connector-curvature="0"
       style="fill:#82c41b;stroke:none" />
    <path
       d="m 586.05763,153.55508 q 1,1 1,2.4 0,1.4 -1,2.4 -1,1 -2.4,1 -1.4,0 -2.4,-1 -1,-1 -1,-2.4 0,-1.4 1,-2.4 1,-1 2.4,-1 1.4,0 2.4,1 m -31.1,19.35 q 1.1,0 1.9,0.8 0.8,0.8 0.8,1.9 0,1.1 -0.8,1.9 -0.8,0.8 -1.9,0.8 -1.1,0 -1.9,-0.8 -0.8,-0.8 -0.8,-1.9 0,-1.1 0.8,-1.9 0.8,-0.8 1.9,-0.8 m 9.8,-2.15 q 0,-1.7 1.15,-2.9 1.2,-1.15 2.9,-1.15 1.7,0 2.85,1.15 1.2,1.2 1.2,2.9 0,1.7 -1.2,2.85 -1.15,1.2 -2.85,1.2 -1.7,0 -2.9,-1.2 -1.15,-1.15 -1.15,-2.85 m 1.05,20.85 q -1.05,-1.05 -1.05,-2.55 0,-1.5 1.05,-2.6 1.1,-1.05 2.6,-1.05 1.5,0 2.55,1.05 1.1,1.1 1.1,2.6 0,1.5 -1.1,2.55 -1.05,1.1 -2.55,1.1 -1.5,0 -2.6,-1.1"
       id="path148"
       inkscape:connector-curvature="0"
       style="fill:#82c41b;stroke:none" />
    <path
       d="m 446.25763,76.355085 q -0.2,-9.5 -7,-16.25 l -0.15,-0.15 q -7.05,-6.8 -16.8,-6.8 l -0.05,0 q -9.9,0 -16.95,6.95 -4.95,4.9 -6.4,11.2 -0.6,2.4 -0.65,5.05 l 0,-1.5 q 0,-1.75 0.25,-3.45 1.05,-7.6 6.8,-13.3 7.05,-6.95 16.95,-6.95 l 0.05,0 q 9.9,0 16.95,6.95 l 1.3,1.4 q 5.7,6.5 5.7,15.35 l 0,1.5"
       id="path150"
       inkscape:connector-curvature="0"
       style="fill:#f77c2b;stroke:none" />
    <path
       d="m 446.25763,76.355085 0,120.799995 -48,0 0,-120.799995 q 0.05,-2.65 0.65,-5.05 1.45,-6.3 6.4,-11.2 7.05,-6.95 16.95,-6.95 l 0.05,0 q 9.75,0 16.8,6.8 l 0.15,0.15 q 6.8,6.75 7,16.25"
       id="path152"
       inkscape:connector-curvature="0"
       style="fill:#e86a17;stroke:none" />
    <path
       d="m 434.40763,81.155085 q 1.65,1.65 1.65,3.8 0,2.2 -1.65,3.7 -1.55,1.55 -3.7,1.55 -2.2,0 -3.9,-1.55 -1.45,-1.5 -1.45,-3.7 l 0.05,-0.85 8.8,-3.15 0.2,0.2 m -17.4,13.25 q -1.05,0.7 -1.4,1.65 l -0.45,0.55 -0.85,0.2 -0.65,-0.55 q -0.2,-0.4 -0.1,-0.85 0.5,-1.6 1.95,-2.7 2.4,-1.85 5.55,-1.85 3.25,0 5.5,1.85 1.45,1.1 2,2.6 0.2,0.35 0,0.85 l -0.55,0.55 q -0.45,0.2 -0.8,0 l -0.65,-0.55 q -0.4,-1.05 -1.3,-1.75 -1.8,-1.4 -4.2,-1.4 -2.4,0 -4.05,1.4 m 0,-9.45 q 0,2.2 -1.7,3.7 -1.55,1.55 -3.7,1.55 -2.3,0 -3.85,-1.55 -1.5,-1.5 -1.5,-3.7 0,-2.05 1.4,-3.75 l 9.15,2.45 0.2,1.3"
       id="path154"
       inkscape:connector-curvature="0"
       style="fill:#af4e0e;stroke:none" />
    <path
       d="m 438.75763,70.755085 q 0,1.4 -1,2.4 -1,1 -2.4,1 -1.4,0 -2.4,-1 -1,-1 -1,-2.4 0,-1.4 1,-2.4 1,-1 2.4,-1 1.4,0 2.4,1 1,1 1,2.4 m -10.7,-2.05 q 0,1.7 -1.2,2.85 -1.15,1.2 -2.85,1.2 -1.7,0 -2.9,-1.2 -1.15,-1.15 -1.15,-2.85 0,-1.7 1.15,-2.9 1.2,-1.15 2.9,-1.15 1.7,0 2.85,1.15 1.2,1.2 1.2,2.9 m 1.1,7.8 q 0.45,0.45 0.45,1.05 0,0.6 -0.45,1 -0.4,0.45 -1,0.45 -0.6,0 -1.05,-0.45 -0.4,-0.4 -0.4,-1 0,-0.6 0.4,-1.05 0.45,-0.4 1.05,-0.4 0.6,0 1,0.4 m -26.95,41.799995 q 0,-1.1 0.8,-1.9 0.8,-0.8 1.9,-0.8 1.1,0 1.9,0.8 0.8,0.8 0.8,1.9 0,1.1 -0.8,1.9 -0.8,0.8 -1.9,0.8 -1.1,0 -1.9,-0.8 -0.8,-0.8 -0.8,-1.9 m 9.3,7.5 q -1.05,-1.05 -1.05,-2.55 0,-1.5 1.05,-2.6 1.1,-1.05 2.6,-1.05 1.5,0 2.55,1.05 1.1,1.1 1.1,2.6 0,1.5 -1.1,2.55 -1.05,1.1 -2.55,1.1 -1.5,0 -2.6,-1.1 m -1.4,4.05 q 1.4,0 2.4,1 1,1 1,2.4 0,1.4 -1,2.4 -1,1 -2.4,1 -1.4,0 -2.4,-1 -1,-1 -1,-2.4 0,-1.4 1,-2.4 1,-1 2.4,-1 m 25.75,23.5 q 2.05,0 3.45,1.4 1.45,1.45 1.45,3.5 0,2.05 -1.45,3.45 -1.4,1.45 -3.45,1.45 -2.05,0 -3.5,-1.45 -1.4,-1.4 -1.4,-3.45 0,-2.05 1.4,-3.5 1.45,-1.4 3.5,-1.4 m -3.1,14.4 q 0,1.5 -1.1,2.55 -1.05,1.1 -2.55,1.1 -1.5,0 -2.6,-1.1 -1.05,-1.05 -1.05,-2.55 0,-1.5 1.05,-2.6 1.1,-1.05 2.6,-1.05 1.5,0 2.55,1.05 1.1,1.1 1.1,2.6 m 1.6,9.75 q 1.15,1.15 1.15,2.75 0,1.6 -1.15,2.75 -1.15,1.15 -2.75,1.15 -1.6,0 -2.75,-1.15 -1.15,-1.15 -1.15,-2.75 0,-1.6 1.15,-2.75 1.15,-1.15 2.75,-1.15 1.6,0 2.75,1.15"
       id="path156"
       inkscape:connector-curvature="0"
       style="fill:#f0711c;stroke:none" />
    <path
       style="fill:#80be1f;stroke:none"
       inkscape:connector-curvature="0"
       id="path3488"
       d="m 277.00763,109.60508 12.15,0 1.55,0.15 q 13.35,1.85 21.45,10.55 1.95,2.55 0,7.1 -4.05,3.55 -9,5.85 -7.8,3.7 -18,4.35 l -8.4,0 -0.95,0 q -5.45,0 -9.25,-4.1 -3.85,-4.1 -3.85,-9.9 0,-5.8 3.85,-9.9 3.8,-4.1 9.25,-4.1 l 1.2,0" />
    <path
       style="fill:#8bcb27;stroke:none"
       inkscape:connector-curvature="0"
       id="path3490"
       d="m 277.00763,109.60508 q 0.05,-2.6 2.95,-4.25 3.7,2 11.5,2.75 l -0.75,1.65 -1.55,-0.15 -12.15,0 m 35.15,10.7 0.05,0.05 13.5,-7.25 q -0.75,10.35 2.1,19.25 -0.05,2.5 -4.45,0.4 l -11.15,-5.4 -0.05,0.05 q 1.95,-4.55 0,-7.1 m -9,12.95 0,2.35 q -1.25,4.7 -7.25,6 l -19.5,4.55 -1.35,-2.1 q 1.55,-3.1 1.7,-6.45 l 8.4,0 q 10.2,-0.65 18,-4.35" />
    <path
       style="fill:#5f8c19;stroke:none"
       inkscape:connector-curvature="0"
       id="path3492"
       d="m 263.45763,121.95508 -0.75,0 0.25,-1.7 0.5,0.05 q 1.9,0 3.3,-1.15 l 1.05,-1.35 0.5,-0.45 q 0.3,-0.15 0.65,0 l 0.45,0.45 0,0.65 q -0.45,1.15 -1.6,2.05 -1.8,1.45 -4.35,1.45 m 4.75,1.75 q 1.25,-1.2 2.9,-1.2 1.8,0 3.1,1.2 1.15,1.2 1.15,2.95 l -0.05,0.65 -6.95,2.5 -0.15,-0.15 q -1.35,-1.3 -1.35,-3 0,-1.75 1.35,-2.95" />
  </g>
</svg>
